<svg height="430pt" viewBox="0 -3 430.08 430" width="430pt" xmlns="http://www.w3.org/2000/svg"><path d="m307.199219 160.464844c0 84.832031-68.769531 153.601562-153.597657 153.601562-84.832031 0-153.601562-68.769531-153.601562-153.601562 0-84.828125 68.769531-153.597656 153.601562-153.597656 84.828126 0 153.597657 68.769531 153.597657 153.597656zm0 0" fill="#d9be6f"/><path d="m161.527344 128.242188 15.964844-5.320313 21.5-5.375c17.148437-4.289063 29.753906-18.378906 32.519531-35.390625l-116.699219 38.902344.285156.199218c13.46875 9.625 30.726563 12.21875 46.429688 6.984376zm0 0" fill="#bf7e68"/><path d="m145.226562 137.707031c-12.082031 0-24.0625-3.722656-34.097656-10.890625-2.089844-1.492187-3.308594-4.132812-2.925781-6.667968.382813-2.542969 2.019531-4.75 4.449219-5.566407l116.703125-38.902343c2.265625-.753907 4.765625-.269532 6.585937 1.277343 1.816406 1.546875 2.691406 3.9375 2.3125 6.292969-3.246094 19.957031-18.007812 36.019531-37.609375 40.917969l-21.496093 5.375-15.464844 5.175781c-6.011719 2.003906-12.25 2.988281-18.457032 2.988281zm16.300782-9.464843h.066406zm-28.773438-5.964844c8.675782 2.503906 17.945313 2.386718 26.613282-.511719l15.964843-5.324219 22.007813-5.515625c10.121094-2.53125 18.472656-9.144531 23.328125-17.957031zm0 0" fill="#4c241d"/><path d="m231.511719 82.15625c-2.761719 17.011719-15.371094 31.101562-32.519531 35.390625l-21.5 5.375-15.964844 5.320313c-15.703125 5.234374-32.960938 2.636718-46.429688-6.984376l-.285156-.199218-14.644531 4.878906c-6.820313 2.273438-11.421875 8.65625-11.421875 15.847656 0 8.121094 5.839844 15.0625 13.839844 16.457032l104.210937 18.144531c23.90625 4.164062 45.789063-14.238281 45.789063-38.507813v-62.746094zm0 0" fill="#ffce56"/><path d="m213.53125 183.796875c-2.625 0-5.273438-.226563-7.910156-.683594l-104.207032-18.144531c-11.292968-1.964844-19.492187-11.714844-19.492187-23.179688 0-10.144531 6.464844-19.117187 16.085937-22.324218l14.648438-4.878906c2.078125-.691407 4.351562-.347657 6.125.917968 11.933594 8.527344 27.003906 10.796875 40.585938 6.265625l15.964843-5.324219 22.007813-5.519531c14.292968-3.574219 25.066406-15.296875 27.433594-29.863281.40625-2.503906 2.171874-4.578125 4.582031-5.378906l21.070312-7.023438c2.082031-.691406 4.371094-.351562 6.15625.941406 1.777344 1.277344 2.832031 3.339844 2.832031 5.53125v62.746094c0 13.589844-5.96875 26.398438-16.359374 35.140625-8.355469 7.019531-18.796876 10.777344-29.523438 10.777344zm-99.753906-55.195313-11.453125 3.8125c-4.039063 1.347657-6.75 5.113282-6.75 9.371094 0 4.8125 3.441406 8.902344 8.183593 9.726563l104.210938 18.148437c9.398438 1.636719 18.984375-.949218 26.296875-7.089844 7.300781-6.144531 11.496094-15.144531 11.496094-24.691406v-53.273437l-8.359375 2.785156c-4.488282 18.015625-18.527344 32.222656-36.753906 36.78125l-21.496094 5.371094-15.464844 5.175781c-16.703125 5.570312-35.132812 3.257812-49.910156-6.117188zm0 0" fill="#4c241d"/><path d="m252.585938 75.132812v-34.132812c0-18.851562 15.28125-34.132812 34.132812-34.132812v34.132812c0 18.851562-15.28125 34.132812-34.132812 34.132812zm0 0" fill="#ffce56"/><path d="m252.585938 81.960938c-3.773438 0-6.824219-3.058594-6.824219-6.828126v-34.132812c0-22.585938 18.371093-40.9609375 40.957031-40.9609375 3.773438 0 6.828125 3.0585935 6.828125 6.8281255v34.132812c0 22.585938-18.375 40.960938-40.960937 40.960938zm27.308593-67.402344c-11.769531 3.039062-20.480469 13.742187-20.480469 26.441406v26.441406c11.765626-3.039062 20.480469-13.742187 20.480469-26.441406zm0 0" fill="#4c241d"/><path d="m218.453125 279.933594v-34.132813c0-18.851562 15.28125-34.132812 34.132813-34.132812v34.132812c0 18.851563-15.28125 34.132813-34.132813 34.132813zm0 0" fill="#ffce56"/><path d="m218.453125 286.761719c-3.773437 0-6.828125-3.058594-6.828125-6.828125v-34.132813c0-22.585937 18.375-40.960937 40.960938-40.960937 3.773437 0 6.828124 3.058594 6.828124 6.828125v34.132812c0 22.585938-18.375 40.960938-40.960937 40.960938zm27.308594-67.40625c-11.769531 3.039062-20.480469 13.746093-20.480469 26.445312v26.441407c11.765625-3.039063 20.480469-13.742188 20.480469-26.441407zm0 0" fill="#4c241d"/><path d="m252.585938 75.132812v173.882813l169.640624-21.808594c-9.269531-85.507812-81.667968-152.074219-169.640624-152.074219zm0 0" fill="#bf7e68"/><path d="m252.585938 255.84375c-1.644532 0-3.253907-.597656-4.507813-1.699219-1.472656-1.296875-2.316406-3.164062-2.316406-5.128906v-173.882813c0-3.769531 3.050781-6.824218 6.824219-6.824218 90.808593 0 166.652343 67.996094 176.425781 158.160156.402343 3.699219-2.226563 7.035156-5.910157 7.507812l-169.640624 21.808594c-.292969.039063-.585938.058594-.875.058594zm6.828124-173.742188v159.15625l155.171876-19.949218c-11.585938-77.664063-76.625-136-155.171876-139.207032zm0 0" fill="#4c241d"/><path d="m252.585938 416.464844c62.628906 0 117.347656-33.753906 147.039062-84.042969l-147.039062-21.246094zm0 0" fill="#bf7e68"/><path d="m252.585938 423.292969c-3.773438 0-6.824219-3.054688-6.824219-6.828125v-105.289063c0-1.980469.859375-3.867187 2.359375-5.160156 1.492187-1.300781 3.523437-1.882813 5.441406-1.597656l147.039062 21.246093c2.253907.324219 4.199219 1.753907 5.179688 3.804688.984375 2.054688.878906 4.460938-.273438 6.421875-31.835937 53.914063-90.429687 87.402344-152.921874 87.402344zm6.828124-104.234375v90.4375c51.671876-2.1875 99.746094-29.066406 128.804688-71.828125zm0 0" fill="#4c241d"/><path d="m423.253906 245.800781c0-6.285156-.367187-12.484375-1.027344-18.59375l-169.640624 21.808594v30.917969h167.246093c2.242188-11.03125 3.421875-22.441406 3.421875-34.132813zm0 0" fill="#ffce56"/><path d="m419.832031 286.761719h-167.246093c-3.773438 0-6.824219-3.058594-6.824219-6.828125v-30.917969c0-3.433594 2.550781-6.332031 5.949219-6.769531l169.640624-21.808594c1.847657-.238281 3.660157.273438 5.101563 1.410156 1.4375 1.136719 2.367187 2.804688 2.558594 4.625.707031 6.550782 1.066406 13.054688 1.066406 19.328125 0 11.929688-1.191406 23.867188-3.550781 35.492188-.648438 3.179687-3.449219 5.46875-6.695313 5.46875zm-160.417969-13.65625h154.738282c1.515625-8.988281 2.273437-18.148438 2.273437-27.304688 0-3.566406-.125-7.21875-.371093-10.917969l-156.640626 20.140626zm0 0" fill="#4c241d"/><path d="m252.585938 279.933594v31.242187l147.039062 21.246094c9.449219-16.011719 16.390625-33.679687 20.207031-52.492187h-167.246093zm0 0" fill="#ffce56"/><path d="m399.625 339.246094c-.320312 0-.644531-.023438-.972656-.070313l-147.039063-21.246093c-3.359375-.484376-5.851562-3.363282-5.851562-6.753907v-31.242187c0-3.769532 3.050781-6.828125 6.824219-6.828125h167.246093c2.046875 0 3.988281.921875 5.289063 2.507812 1.292968 1.585938 1.8125 3.667969 1.40625 5.679688-3.90625 19.207031-10.972656 37.574219-21.019532 54.597656-1.242187 2.101563-3.488281 3.355469-5.882812 3.355469zm-140.210938-33.980469 136.59375 19.734375c6.710938-12.121094 11.824219-24.9375 15.253907-38.238281h-151.847657zm0 0" fill="#4c241d"/><path d="m252.585938 218.492188c33.933593 0 61.441406 27.507812 61.441406 61.441406s-27.507813 61.441406-61.441406 61.441406zm0 0" fill="#e7d1c4"/><g fill="#4c241d"><path d="m252.585938 348.199219c-3.773438 0-6.824219-3.054688-6.824219-6.824219v-122.882812c0-3.769532 3.050781-6.824219 6.824219-6.824219 37.640624 0 68.265624 30.621093 68.265624 68.265625 0 37.644531-30.625 68.265625-68.265624 68.265625zm6.828124-122.457031v108.382812c26.898438-3.375 47.785157-26.390625 47.785157-54.191406 0-27.800782-20.886719-50.816406-47.785157-54.191406zm0 0"/><path d="m218.453125 136.574219c0 3.769531-3.054687 6.824219-6.828125 6.824219-3.769531 0-6.824219-3.054688-6.824219-6.824219s3.054688-6.828125 6.824219-6.828125c3.773438 0 6.828125 3.058594 6.828125 6.828125zm0 0"/></g></svg>