<svg height="419pt" viewBox="0 -19 419.49525 419" width="419pt" xmlns="http://www.w3.org/2000/svg"><path d="m308.734375 155.933594c0 84.832031-68.765625 153.597656-153.597656 153.597656s-153.601563-68.765625-153.601563-153.597656c0-84.832032 68.769532-153.601563 153.601563-153.601563s153.597656 68.769531 153.597656 153.601563zm0 0" fill="#d9be6f"/><path d="m405.34375 214.714844h-13.65625v-3.714844c0-17.113281-6.578125-33.292969-18.523438-45.546875l-11.289062-11.578125 9.777344-9.535156 11.285156 11.578125c14.445312 14.828125 22.40625 34.386719 22.40625 55.082031zm0 0" fill="#4c241d"/><path d="m412.671875 224.40625c0 6.976562-4.175781 18.179688-7.558594 26.105469-1.597656 3.746093-6.882812 3.746093-8.480469 0-3.382812-7.929688-7.554687-19.128907-7.554687-26.105469 0-11.726562 5.28125-21.234375 11.796875-21.234375s11.796875 9.507813 11.796875 21.234375zm0 0" fill="#fc8c29"/><path d="m400.875 260.148438c-.007812 0-.007812 0-.011719 0-4.589843 0-8.714843-2.734376-10.507812-6.960938-5.378907-12.59375-8.105469-22.28125-8.105469-28.78125 0-16 8.003906-28.058594 18.625-28.058594 10.613281 0 18.621094 12.058594 18.621094 28.058594 0 6.488281-2.726563 16.167969-8.101563 28.78125-1.804687 4.234375-5.929687 6.960938-10.519531 6.960938zm-.019531-50.148438c-1.117188.21875-4.953125 5.140625-4.953125 14.40625 0 3.71875 1.789062 10.292969 4.976562 18.441406 3.179688-8.152344 4.964844-14.734375 4.964844-18.441406 0-9.246094-3.828125-14.179688-4.988281-14.40625zm0 0" fill="#4c241d"/><path d="m299.308594 233.429688 12.179687 26.933593c4.410157 9.753907 5.820313 20.574219 4.046875 31.113281l-10.210937 55.601563h-20.472657c-7.542968 0-13.652343 6.125-13.640624 13.664063.011718 7.535156 6.132812 13.632812 13.664062 13.621093l45.785156-.078125 30.054688-103.691406-28.394532-51.191406zm0 0" fill="#fc8c29"/><path d="m284.871094 381.195312c-11.28125 0-20.46875-9.160156-20.488282-20.433593-.007812-5.472657 2.113282-10.628907 5.980469-14.5 3.867188-3.875 9.011719-6.007813 14.492188-6.007813h14.78125l9.1875-50.015625c1.53125-9.113281.304687-18.511719-3.554688-27.070312l-15.058593-33.289063 45.097656-19.160156 32.753906 59.046875-32.265625 111.339844-50.90625.085937c-.007813.003906-.015625.003906-.019531.003906zm-.015625-27.289062c-1.824219 0-3.539063.714844-4.824219 2-1.289062 1.292969-1.996094 3.007812-1.996094 4.828125.007813 3.75 3.066406 6.804687 6.828125 6.804687h.007813l40.660156-.074218 27.835938-96.046875-24.03125-43.324219-20.925782 8.890625 9.296875 20.5625c4.988281 11.039063 6.5625 23.164063 4.5625 35.058594l-11.261719 61.300781zm0 0" fill="#4c241d"/><path d="m115.367188 176.960938v27.394531c0 18.71875 5.304687 37.054687 15.296874 52.882812 5.339844 8.453125 7.304688 18.574219 5.507813 28.382813l-15.171875 61.457031h-20.480469c-7.539062 0-13.652343 6.113281-13.652343 13.65625 0 7.539063 6.113281 13.652344 13.652343 13.652344h40.871094l30.605469-113.351563-33.035156-84.074218zm0 0" fill="#fc8c29"/><path d="m146.621094 381.214844h-46.097656c-11.292969 0-20.480469-9.1875-20.480469-20.480469s9.1875-20.480469 20.480469-20.480469h15.132812l13.890625-56.269531c1.402344-7.730469-.21875-16.078125-4.652344-23.097656-10.699219-16.949219-16.355469-36.492188-16.355469-56.527344v-34.226563h35.078126l35.558593 90.5zm-46.097656-27.308594c-3.765626 0-6.828126 3.058594-6.828126 6.828125 0 3.765625 3.0625 6.824219 6.828126 6.824219h35.644531l28.648437-106.125-30.507812-77.648438h-12.117188v20.574219c0 17.453125 4.929688 34.472656 14.25 49.234375 6.265625 9.925781 8.558594 21.738281 6.445313 33.257812l-16.535157 67.054688zm0 0" fill="#4c241d"/><path d="m120.085938 21.234375c0 7.816406-6.339844 14.15625-14.15625 14.15625-7.820313 0-14.15625-6.339844-14.15625-14.15625 0-7.820313 6.335937-14.160156 14.15625-14.160156 7.816406 0 14.15625 6.339843 14.15625 14.160156zm0 0" fill="#ffce56"/><path d="m105.929688 42.214844c-11.570313 0-20.984376-9.414063-20.984376-20.980469 0-11.574219 9.414063-20.988281 20.984376-20.988281 11.570312 0 20.984374 9.414062 20.984374 20.988281 0 11.566406-9.414062 20.980469-20.984374 20.980469zm0-28.3125c-4.042969 0-7.332032 3.285156-7.332032 7.332031 0 4.039063 3.289063 7.328125 7.332032 7.328125 4.042968 0 7.328124-3.289062 7.328124-7.328125 0-4.046875-3.285156-7.332031-7.328124-7.332031zm0 0" fill="#4c241d"/><path d="m59.5625 53.53125v47.789062c0 44.046876 30.609375 84.136719 75.203125 84.136719 0 0 .414063 71.503907 33.246094 79.75l-18.996094 81.871094h-20.796875c-7.539062 0-13.652344 6.113281-13.652344 13.65625 0 7.539063 6.113282 13.652344 13.652344 13.652344h25.8125c13.476562 0 24.902344-9.902344 26.824219-23.242188l13.246093-92.140625c1.246094-8.917968 10.113282-14.53125 18.945313-12.3125 35.390625 8.875 69.550781 6.441406 102.449219-7.597656 7.992187-3.414062 17.28125-.265625 21.175781 7.425781l1.652344 3.261719c6.613281 13.0625 8.792969 27.886719 6.226562 42.269531l-10.292969 55.027344h-27.386718c-7.539063 0-13.652344 6.113281-13.652344 13.65625 0 7.539063 6.113281 13.652344 13.652344 13.652344h28.753906c12.992188 0 24.15625-9.222657 26.609375-21.980469l11.359375-59.050781v-107.453125c0-21.996094-4.121094-43.796875-12.144531-64.277344l-4.457031-11.371094c-8.71875-18.449218-13.234376-38.558594-13.234376-58.914062 0-14.023438-11.507812-25.390625-25.707031-25.390625-25.152343 0-45.539062 20.140625-45.539062 44.980469v6.625c0 2.589843-2.128907 4.691406-4.75 4.691406-2.625 0-4.75-2.101563-4.75-4.691406v-26.011719c0-14.132813-11.601563-25.589844-25.914063-25.589844-23.203125 0-43.929687 14.191406-52.132812 35.628906-7.875 20.566407-19.515625 44.933594-34.140625 58.300781-8.445313 7.71875-21.160157 7.28125-29.125-.929687-10.488281-10.808594-23.027344-31.078125-20.179688-64.855469zm0 0" fill="#ffce56"/><path d="m335.621094 381.214844h-28.753906c-11.292969 0-20.476563-9.1875-20.476563-20.480469s9.183594-20.480469 20.476563-20.480469h21.722656l9.246094-49.453125c2.289062-12.789062.292968-26.28125-5.605469-37.941406l-1.648438-3.253906c-2.226562-4.390625-7.679687-6.25-12.40625-4.230469-34.007812 14.507812-69.925781 17.199219-106.785156 7.9375-2.472656-.632812-5.0625-.179688-7.109375 1.195312-1.890625 1.273438-3.105469 3.207032-3.417969 5.445313l-13.253906 92.167969c-2.382813 16.585937-16.816406 29.09375-33.578125 29.09375h-25.8125c-11.292969 0-20.480469-9.1875-20.480469-20.480469s9.1875-20.480469 20.480469-20.480469h15.371094l16.417968-70.753906c-26.183593-12.878906-31-59.441406-31.875-77.5-42.785156-3.625-75.398437-42.152344-75.398437-90.679688v-54.707031l56.199219.761719-.613282 7.296875c-2.609374 30.933594 8.496094 49.449219 18.273438 59.527344 5.441406 5.613281 13.878906 5.894531 19.621094.648437 11.117187-10.167968 22.308594-29.425781 32.367187-55.703125 9.160157-23.9375 32.675781-40.019531 58.511719-40.019531 17.78125 0 32.296875 14.109375 32.730469 31.613281 7.972656-18.566406 26.585937-31.613281 48.226562-31.613281 17.9375 0 32.53125 14.457031 32.53125 32.214844 0 19.226562 4.347657 38.585937 12.578125 55.996094l4.640625 11.804687c8.367188 21.359375 12.613281 43.820313 12.613281 66.761719l-.117187 108.738281-11.359375 59.054687c-3.066406 15.945313-17.082031 27.519532-33.316406 27.519532zm-28.753906-27.308594c-3.765626 0-6.824219 3.058594-6.824219 6.828125 0 3.765625 3.058593 6.824219 6.824219 6.824219h28.753906c9.703125 0 18.074218-6.914063 19.902344-16.4375l11.238281-58.421875v-106.796875c0-21.230469-3.925781-42.015625-11.671875-61.78125l-4.460938-11.378906c-8.898437-18.789063-13.699218-40.175782-13.699218-61.402344 0-10.234375-8.464844-18.558594-18.878907-18.558594-21.347656 0-38.714843 17.113281-38.714843 38.152344v6.621094c0 6.351562-5.191407 11.519531-11.578126 11.519531-6.378906 0-11.574218-5.167969-11.574218-11.519531v-26.007813c0-10.347656-8.558594-18.765625-19.085938-18.765625-20.222656 0-38.605468 12.558594-45.761718 31.246094-10.964844 28.648437-23.046876 49.140625-35.90625 60.902344-11.128907 10.164062-28.09375 9.636718-38.632813-1.222657-10.9375-11.277343-23.277344-31.117187-22.484375-62.878906l-27.921875-.375v40.867187c0 38 25.578125 77.304688 68.375 77.304688h6.78125l.046875 6.789062c.121094 18.421876 5.402344 67.480469 28.082031 73.171876l6.503907 1.636718-21.742188 93.6875h-26.214844c-3.765625 0-6.828125 3.058594-6.828125 6.824219s3.0625 6.828125 6.828125 6.828125h25.8125c10.011719 0 18.640625-7.472656 20.0625-17.386719l13.25-92.140625c.839844-6.007812 4.238282-11.433594 9.3125-14.855468 5.257813-3.53125 11.832032-4.671876 18.050782-3.105469 33.90625 8.507812 66.921874 6.054687 98.105468-7.257813 11.34375-4.855468 24.480469-.167968 29.949219 10.625l1.648437 3.253906c7.230469 14.285157 9.664063 30.820313 6.859376 46.558594l-11.347657 60.65625h-33.058593zm0 0" fill="#4c241d"/><path d="m75.253906 11.796875c-11.542968 0-21.695312 5.605469-28.15625 14.15625h-16.675781c-13.03125 0-23.59375 10.5625-23.59375 23.59375s10.5625 23.597656 23.59375 23.597656h20.929687c6.304688 5.804688 14.652344 9.4375 23.902344 9.4375 19.546875 0 35.394532-15.847656 35.394532-35.394531s-15.847657-35.390625-35.394532-35.390625zm0 0" fill="#ffce56"/><g fill="#4c241d"><path d="m75.253906 89.40625c-9.621094 0-18.910156-3.332031-26.4375-9.4375h-18.394531c-16.773437 0-30.421875-13.648438-30.421875-30.421875s13.648438-30.417969 30.421875-30.417969h13.453125c8.03125-9.039062 19.285156-14.160156 31.382812-14.160156 23.28125 0 42.21875 18.941406 42.21875 42.21875s-18.941406 42.21875-42.222656 42.21875zm-44.832031-56.625c-9.246094 0-16.769531 7.519531-16.769531 16.765625s7.523437 16.765625 16.769531 16.765625h23.597656l1.960938 1.808594c5.335937 4.917968 12.183593 7.632812 19.273437 7.632812 15.753906 0 28.566406-12.8125 28.566406-28.566406s-12.8125-28.566406-28.566406-28.566406c-8.933594 0-17.210937 4.171875-22.710937 11.445312l-2.042969 2.714844zm0 0"/><path d="m83.457031 43.292969c0 3.769531-3.058593 6.828125-6.828125 6.828125-3.769531 0-6.828125-3.058594-6.828125-6.828125s3.058594-6.828125 6.828125-6.828125c3.769532 0 6.828125 3.058594 6.828125 6.828125zm0 0"/></g></svg>