<svg height="423.25333pt" viewBox="0 0 423.25333 423.25333" width="423.25333pt" xmlns="http://www.w3.org/2000/svg"><path d="m307.199219 153.601562c0 84.828126-68.769531 153.597657-153.597657 153.597657-84.832031 0-153.601562-68.769531-153.601562-153.597657 0-84.832031 68.769531-153.601562 153.601562-153.601562 84.828126 0 153.597657 68.769531 153.597657 153.601562zm0 0" fill="#d9be6f"/><path d="m314.816406 389.648438c-10.871094 0-22.855468-.980469-35.9375-2.949219-3.730468-.558594-6.296875-4.039063-5.734375-7.765625.554688-3.734375 4.054688-6.265625 7.761719-5.738282 47.585938 7.164063 79.191406.363282 91.449219-19.640624 13.777343-22.488282 1.3125-58.96875-16.097657-83.347657-10.277343-14.382812-16.492187-39.234375-8.617187-54.292969 3.074219-5.871093 7.355469-10.925781 12.730469-15.027343 8.246094-6.28125 18.589844-9.738281 29.128906-9.738281h26.925781c3.769531 0 6.828125 3.050781 6.828125 6.824218 0 3.773438-3.058594 6.828125-6.828125 6.828125h-26.925781c-7.566406 0-14.972656 2.464844-20.851562 6.945313-3.773438 2.882812-6.773438 6.40625-8.914063 10.492187-5.066406 9.699219-.148437 29.132813 7.632813 40.035157 20.613281 28.851562 33.75 70.480468 16.625 98.410156-11.8125 19.277344-35.015626 28.964844-69.175782 28.964844zm0 0" fill="#4c241d"/><path d="m245.761719 61.441406v60.789063c-30.984375-4.007813-62.863281-3.519531-95.574219 1.121093v-61.910156c-33.933594 0-61.441406 27.507813-61.441406 61.4375v247.957032c0 25.179687 20.414062 45.589843 45.589844 45.589843h127.273437c25.179687 0 45.589844-20.410156 45.589844-45.589843v-247.957032c0-33.929687-27.507813-61.4375-61.4375-61.4375zm0 0" fill="#fc8c29"/><g fill="#4c241d"><path d="m261.609375 423.253906h-127.273437c-28.902344 0-52.414063-23.511718-52.414063-52.414062v-247.960938c0-37.640625 30.621094-68.265625 68.265625-68.265625 3.769531 0 6.824219 3.054688 6.824219 6.828125v54.125c28.125-3.433594 55.617187-3.765625 81.921875-1.011718v-53.113282c0-3.773437 3.054687-6.828125 6.828125-6.828125 37.640625 0 68.265625 30.625 68.265625 68.265625v247.960938c0 28.902344-23.511719 52.414062-52.417969 52.414062zm-118.25-354.5625c-26.902344 3.371094-47.785156 26.390625-47.785156 54.1875v247.960938c0 21.371094 17.386719 38.761718 38.761719 38.761718h127.273437c21.375 0 38.765625-17.390624 38.765625-38.761718v-247.960938c0-27.796875-20.882812-50.816406-47.789062-54.1875v53.535156c0 1.960938-.847657 3.832032-2.320313 5.125-1.472656 1.296876-3.421875 1.863282-5.382813 1.648438-29.800781-3.859375-61.347656-3.480469-93.734374 1.113281-1.953126.292969-3.945313-.308593-5.4375-1.605469-1.496094-1.292968-2.351563-3.171874-2.351563-5.15625zm0 0"/><path d="m302.078125 211.625h-49.492187c-3.769532 0-6.824219-3.050781-6.824219-6.824219 0-3.773437 3.054687-6.828125 6.824219-6.828125h49.492187c3.773437 0 6.828125 3.054688 6.828125 6.828125 0 3.773438-3.054688 6.824219-6.828125 6.824219zm0 0"/><path d="m307.191406 266.238281c-1.023437 0-2.066406-.230469-3.042968-.71875l-54.613282-27.304687c-3.375-1.6875-4.742187-5.789063-3.054687-9.160156 1.6875-3.367188 5.78125-4.734376 9.160156-3.054688l54.613281 27.308594c3.375 1.683594 4.738282 5.785156 3.050782 9.15625-1.195313 2.394531-3.605469 3.773437-6.113282 3.773437zm0 0"/><path d="m143.359375 211.625h-49.492187c-3.769532 0-6.828126-3.050781-6.828126-6.824219 0-3.773437 3.058594-6.828125 6.828126-6.828125h49.492187c3.769531 0 6.828125 3.054688 6.828125 6.828125 0 3.773438-3.058594 6.824219-6.828125 6.824219zm0 0"/><path d="m197.148438 252.585938c-3.769532 0-6.828126-3.050782-6.828126-6.824219v-27.933594c0-3.773437 3.058594-6.828125 6.828126-6.828125 3.769531 0 6.824218 3.054688 6.824218 6.828125v27.933594c0 3.773437-3.054687 6.824219-6.824218 6.824219zm0 0"/><path d="m88.753906 266.238281c-2.507812 0-4.917968-1.378906-6.113281-3.773437-1.6875-3.371094-.320313-7.472656 3.054687-9.15625l54.613282-27.308594c3.375-1.679688 7.476562-.3125 9.15625 3.054688 1.6875 3.371093.324218 7.472656-3.050782 9.160156l-54.613281 27.304687c-.980469.488281-2.023437.71875-3.046875.71875zm0 0"/></g><path d="m183.523438 214.578125-1.367188-1.566406c-4.484375-5.128907-.84375-13.152344 5.96875-13.152344h23.8125c6.8125 0 10.453125 8.023437 5.96875 13.152344l-1.367188 1.566406c-8.742187 9.988281-24.277343 9.988281-33.015624 0zm0 0" fill="#ffded5"/><path d="m200.03125 228.898438c-8.292969 0-16.183594-3.578126-21.644531-9.824219-.003907 0-.007813 0-.007813-.007813l-1.367187-1.566406c-3.855469-4.414062-4.75-10.472656-2.324219-15.816406 2.425781-5.339844 7.574219-8.652344 13.433594-8.652344h23.816406c5.863281 0 11.007812 3.3125 13.429688 8.652344 2.429687 5.34375 1.535156 11.402344-2.324219 15.824218l-1.363281 1.558594c-5.464844 6.253906-13.355469 9.832032-21.648438 9.832032zm-11.363281-18.804688c5.746093 6.554688 17 6.546875 22.730469-.007812l1.363281-1.558594c.132812-.152344.472656-.546875.175781-1.191406-.292969-.648438-.808594-.648438-1-.648438h-23.816406c-.191406 0-.707032 0-1.003906.648438-.292969.644531.046874 1.039062.179687 1.183593zm0 0" fill="#4c241d"/><path d="m245.761719 160.425781c0 5.65625-4.585938 10.242188-10.242188 10.242188s-10.238281-4.585938-10.238281-10.242188 4.582031-10.238281 10.238281-10.238281 10.242188 4.582031 10.242188 10.238281zm0 0" fill="#4c241d"/><path d="m177.492188 160.425781c0 5.65625-4.582032 10.242188-10.238282 10.242188s-10.242187-4.585938-10.242187-10.242188 4.585937-10.238281 10.242187-10.238281 10.238282 4.582031 10.238282 10.238281zm0 0" fill="#4c241d"/><path d="m307.199219 334.019531v-42.910156l-75.09375 16.089844zm0 0" fill="#ffce56"/><path d="m307.199219 340.847656c-.773438 0-1.550781-.132812-2.296875-.398437l-75.09375-26.820313c-2.875-1.027344-4.714844-3.835937-4.515625-6.875.203125-3.046875 2.398437-5.585937 5.382812-6.226562l75.09375-16.09375c2.015625-.453125 4.121094.066406 5.722657 1.367187 1.601562 1.292969 2.535156 3.246094 2.535156 5.308594v42.914063c0 2.21875-1.082032 4.300781-2.894532 5.578124-1.167968.820313-2.542968 1.246094-3.933593 1.246094zm-50.1875-32 43.363281 15.484375v-24.78125zm0 0" fill="#4c241d"/><path d="m232.105469 368.640625 69.128906 24.6875c3.78125-6.640625 5.964844-14.304687 5.964844-22.492187v-18.289063zm0 0" fill="#ffce56"/><path d="m301.234375 400.152344c-.765625 0-1.539063-.125-2.296875-.398438l-69.128906-24.6875c-2.875-1.027344-4.714844-3.832031-4.515625-6.871094.203125-3.046874 2.398437-5.585937 5.382812-6.226562l75.09375-16.09375c2.015625-.449219 4.121094.066406 5.722657 1.367188 1.601562 1.292968 2.535156 3.246093 2.535156 5.304687v18.292969c0 9.035156-2.375 17.980468-6.863282 25.867187-1.242187 2.179688-3.535156 3.445313-5.929687 3.445313zm-44.222656-29.867188 40.726562 14.542969c1.730469-4.453125 2.636719-9.199219 2.636719-13.988281v-9.847656zm0 0" fill="#4c241d"/><path d="m88.746094 334.019531 75.09375-26.820312-75.09375-16.089844zm0 0" fill="#ffce56"/><path d="m88.746094 340.847656c-1.386719 0-2.765625-.425781-3.933594-1.246094-1.8125-1.28125-2.890625-3.359374-2.890625-5.582031v-42.914062c0-2.058594.933594-4.011719 2.53125-5.304688 1.609375-1.292969 3.726563-1.820312 5.722656-1.367187l75.09375 16.09375c2.984375.640625 5.179688 3.179687 5.382813 6.226562.199218 3.039063-1.644532 5.847656-4.515625 6.871094l-75.09375 26.820312c-.746094.269532-1.523438.402344-2.296875.402344zm6.828125-41.292968v24.78125l43.363281-15.488282zm0 0" fill="#4c241d"/><path d="m88.746094 352.550781v18.289063c0 8.183594 2.1875 15.851562 5.964844 22.492187l69.128906-24.691406zm0 0" fill="#ffce56"/><path d="m94.714844 400.152344c-2.398438 0-4.691406-1.265625-5.9375-3.445313-4.484375-7.886719-6.859375-16.832031-6.859375-25.867187v-18.292969c0-2.0625.933593-4.015625 2.53125-5.308594 1.609375-1.296875 3.730469-1.804687 5.726562-1.363281l75.09375 16.09375c2.980469.636719 5.179688 3.175781 5.382813 6.222656.199218 3.042969-1.644532 5.847656-4.515625 6.875l-69.125 24.6875c-.757813.273438-1.53125.398438-2.296875.398438zm.859375-39.160156v9.847656c0 4.789062.902343 9.535156 2.636719 13.988281l40.726562-14.542969zm0 0" fill="#4c241d"/></svg>