<svg height="415pt" viewBox="0 -3 415.57016 415" width="415pt" xmlns="http://www.w3.org/2000/svg"><path d="m307.199219 152.617188c0-84.132813-68.769531-152.332032-153.597657-152.332032-84.832031 0-153.601562 68.199219-153.601562 152.332032 0 84.128906 68.769531 152.328124 153.601562 152.328124 84.828126 0 153.597657-68.199218 153.597657-152.328124zm0 0" fill="#d9be6f"/><path d="m328.082031 234.332031c-2.023437 0-4.027343-.898437-5.375-2.613281-2.316406-2.957031-1.8125-7.226562 1.128907-9.558594.246093-.203125 8.917968-7.414062 23.613281-29.457031 2.09375-3.136719 6.324219-3.976563 9.46875-1.890625 3.136719 2.09375 3.980469 6.328125 1.890625 9.464844-16.03125 24.046875-25.492188 31.796875-26.519532 32.601562-1.246093.980469-2.730468 1.453125-4.207031 1.453125zm0 0" fill="#4c241d"/><path d="m392.28125 85.261719c-19.148438-33.167969-53.90625-50.003907-82.652344-42.078125l43.5 105.636718-83.386718-38.914062c1.125 12.910156 5.164062 26.292969 12.453124 38.914062 21.941407 38 64.367188 54.578126 94.769532 37.027344 30.398437-17.550781 37.257812-62.585937 15.316406-100.585937zm0 0" fill="#e66353"/><path d="m350.28125 199.707031c-8.605469 0-17.5-1.722656-26.359375-5.179687-19.339844-7.5625-36.257813-22.582032-47.640625-42.292969-7.472656-12.949219-12.089844-27.382813-13.339844-41.734375-.214844-2.425781.886719-4.789062 2.886719-6.1875 1.996094-1.390625 4.589844-1.625 6.796875-.59375l67.523438 31.507812-36.832032-89.441406c-.742187-1.808594-.675781-3.847656.183594-5.605468.859375-1.753907 2.429688-3.054688 4.316406-3.574219 32.105469-8.867188 70.132813 10.164062 90.378906 45.246093 11.382813 19.714844 15.929688 41.878907 12.804688 62.398438-3.214844 21.09375-14.089844 37.960938-30.625 47.507812-9.160156 5.289063-19.402344 7.949219-30.09375 7.949219zm-71.734375-78.160156c1.984375 8.246094 5.214844 16.332031 9.5625 23.859375 9.835937 17.039062 24.320313 29.964844 40.78125 36.398438 15.925781 6.234374 31.785156 5.554687 44.660156-1.875 12.871094-7.425782 21.375-20.824219 23.953125-37.730469 2.660156-17.472657-1.292968-36.480469-11.132812-53.519531-15.539063-26.921876-42.824219-42.859376-67.238282-40.355469l40.3125 97.894531c1.070313 2.597656.4375 5.589844-1.601562 7.539062-2.03125 1.933594-5.054688 2.445313-7.601562 1.246094zm0 0" fill="#4c241d"/><path d="m108.023438 234.324219c-1.460938 0-2.941407-.472657-4.1875-1.445313-1.023438-.808594-10.480469-8.554687-26.511719-32.601562-2.089844-3.140625-1.246094-7.371094 1.890625-9.46875 3.136718-2.085938 7.371094-1.242188 9.46875 1.894531 14.832031 22.253906 23.53125 29.386719 23.617187 29.460937 2.917969 2.351563 3.410157 6.640626 1.074219 9.574219-1.351562 1.699219-3.339844 2.585938-5.351562 2.585938zm0 0" fill="#4c241d"/><path d="m43.847656 85.261719c19.148438-33.167969 53.90625-50.003907 82.652344-42.078125l-43.496094 105.636718 83.386719-38.914062c-1.128906 12.910156-5.167969 26.292969-12.457031 38.914062-21.9375 38-64.367188 54.578126-94.765625 37.027344-30.402344-17.550781-37.257813-62.585937-15.320313-100.585937zm0 0" fill="#e66353"/><g fill="#4c241d"><path d="m85.847656 199.707031c-10.691406 0-20.929687-2.660156-30.09375-7.949219-16.535156-9.546874-27.410156-26.414062-30.625-47.503906-3.121094-20.519531 1.425782-42.6875 12.804688-62.402344 20.253906-35.070312 58.269531-54.117187 90.378906-45.246093 1.886719.519531 3.457031 1.820312 4.316406 3.574219.863282 1.761718.929688 3.800781.183594 5.605468l-36.828125 89.441406 67.519531-31.507812c2.207032-1.011719 4.796875-.800781 6.796875.59375 2 1.398438 3.101563 3.761719 2.886719 6.1875-1.25 14.351562-5.867188 28.785156-13.339844 41.734375-11.382812 19.710937-28.304687 34.734375-47.640625 42.292969-8.855469 3.457031-17.757812 5.179687-26.359375 5.179687zm26.03125-151.640625c-23.058594 0-47.65625 15.558594-62.117187 40.613282-9.839844 17.039062-13.789063 36.046874-11.128907 53.519531 2.574219 16.90625 11.078126 30.304687 23.949219 37.730469 12.875 7.429687 28.738281 8.109374 44.660157 1.875 16.460937-6.433594 30.945312-19.359376 40.78125-36.398438 4.347656-7.527344 7.578124-15.613281 9.5625-23.855469l-71.695313 33.453125c-2.539063 1.199219-5.5625.6875-7.597656-1.246094-2.039063-1.945312-2.671875-4.941406-1.601563-7.539062l40.308594-97.894531c-1.691406-.171875-3.402344-.257813-5.121094-.257813zm-68.03125 37.199219h.066406zm0 0"/><path d="m408.738281 314.546875c-1.300781 0-2.617187-.375-3.78125-1.148437-21.804687-14.535157-55.25-14.019532-55.609375-14-.046875 0-.09375 0-.144531 0-3.703125 0-6.742187-2.964844-6.824219-6.6875-.078125-3.765626 2.917969-6.886719 6.6875-6.964844 1.515625-.015625 38.128906-.59375 63.464844 16.292968 3.136719 2.09375 3.984375 6.328126 1.890625 9.46875-1.3125 1.972657-3.480469 3.039063-5.683594 3.039063zm0 0"/><path d="m392.859375 370.160156c-2.207031 0-4.371094-1.066406-5.6875-3.039062-14.488281-21.734375-50.109375-35.046875-50.464844-35.179688-3.539062-1.308594-5.351562-5.226562-4.046875-8.769531 1.300782-3.539063 5.234375-5.347656 8.765625-4.046875 1.632813.601562 40.179688 15.027344 57.109375 40.421875 2.089844 3.140625 1.242188 7.371094-1.894531 9.46875-1.164063.769531-2.480469 1.144531-3.78125 1.144531zm0 0"/><path d="m345.175781 409.886719c-3.054687 0-5.839843-2.070313-6.617187-5.175781-7.277344-29.117188-29.851563-48.410157-30.078125-48.605469-2.882813-2.425781-3.253907-6.730469-.832031-9.613281 2.417968-2.878907 6.710937-3.273438 9.605468-.847657 1.0625.890625 26.167969 22.207031 34.554688 55.761719.910156 3.652344-1.3125 7.359375-4.96875 8.273438-.558594.140624-1.113282.207031-1.664063.207031zm0 0"/><path d="m19.449219 314.546875c-2.207031 0-4.371094-1.066406-5.6875-3.039063-2.089844-3.140624-1.242188-7.375 1.894531-9.46875 25.324219-16.886718 61.929688-16.308593 63.464844-16.292968 3.769531.078125 6.753906 3.191406 6.679687 6.960937-.074219 3.773438-3.027343 6.796875-6.957031 6.691407-.332031.007812-33.910156-.464844-55.613281 14-1.164063.773437-2.480469 1.148437-3.78125 1.148437zm0 0"/><path d="m35.328125 370.160156c-1.300781 0-2.617187-.375-3.78125-1.148437-3.136719-2.09375-3.984375-6.328125-1.894531-9.464844 16.929687-25.394531 55.472656-39.820313 57.109375-40.421875 3.519531-1.292969 7.453125.507812 8.761719 4.039062 1.304687 3.539063-.503907 7.460938-4.039063 8.773438-.355469.132812-36.027344 13.515625-50.46875 35.179688-1.320313 1.976562-3.484375 3.042968-5.6875 3.042968zm0 0"/><path d="m83.011719 409.886719c-.550781 0-1.105469-.066407-1.664063-.207031-3.660156-.914063-5.878906-4.621094-4.96875-8.273438 8.386719-33.554688 33.492188-54.875 34.554688-55.761719 2.886718-2.425781 7.191406-2.03125 9.605468.847657 2.421876 2.878906 2.046876 7.183593-.832031 9.613281-.226562.191406-22.800781 19.484375-30.078125 48.605469-.777344 3.105468-3.5625 5.175781-6.617187 5.175781zm0 0"/></g><path d="m349.234375 287.332031c0 50.136719-59.117187 90.78125-132.042969 90.78125-72.925781 0-132.046875-40.644531-132.046875-90.78125s59.121094-123.792969 132.046875-123.792969c72.925782 0 132.042969 73.65625 132.042969 123.792969zm0 0" fill="#e66353"/><path d="m217.191406 384.9375c-76.574218 0-138.871094-43.785156-138.871094-97.605469 0-51.378906 59.632813-130.617187 138.871094-130.617187 79.238282 0 138.871094 79.238281 138.871094 130.617187 0 53.820313-62.296875 97.605469-138.871094 97.605469zm0-214.574219c-69.121094 0-125.21875 70.78125-125.21875 116.96875 0 46.292969 56.175782 83.953125 125.21875 83.953125 69.046875 0 125.21875-37.660156 125.21875-83.953125 0-46.1875-56.097656-116.96875-125.21875-116.96875zm0 0" fill="#4c241d"/><path d="m260.949219 131.699219c0 7.136719-5.78125 12.921875-12.917969 12.921875s-12.921875-5.785156-12.921875-12.921875 5.785156-12.921875 12.921875-12.921875 12.917969 5.785156 12.917969 12.921875zm0 0" fill="#4c241d"/><path d="m202.804688 131.699219c0 7.136719-5.785157 12.921875-12.921876 12.921875-7.136718 0-12.921874-5.785156-12.921874-12.921875s5.785156-12.921875 12.921874-12.921875c7.136719 0 12.921876 5.785156 12.921876 12.921875zm0 0" fill="#4c241d"/><path d="m246.269531 270.59375c-3.332031 0-6.714843-.433594-10.082031-1.335938-3.644531-.964843-5.804688-4.710937-4.835938-8.351562.976563-3.648438 4.699219-5.820312 8.355469-4.835938 13.566407 3.59375 27.570313-4.472656 31.191407-18.039062.972656-3.644531 4.710937-5.824219 8.359374-4.832031 3.644532.972656 5.808594 4.714843 4.832032 8.355469-4.667969 17.46875-20.53125 29.039062-37.820313 29.039062zm0 0" fill="#4c241d"/></svg>