<svg height="436pt" viewBox="0 -5 436.90667 436" width="436pt" xmlns="http://www.w3.org/2000/svg"><path d="m307.199219 154.054688c0 84.828124-68.769531 153.597656-153.597657 153.597656-84.832031 0-153.601562-68.769532-153.601562-153.597656 0-84.832032 68.769531-153.601563 153.601562-153.601563 84.828126 0 153.597657 68.769531 153.597657 153.601563zm0 0" fill="#d9be6f"/><path d="m151.117188 322.054688v43.539062c0 10.222656-5.109376 19.769531-13.613282 25.441406-8.378906 5.582032-18.96875 6.6875-28.316406 2.945313l-18.660156-7.464844c-7.316406-2.925781-13.21875-8.5625-16.476563-15.734375l-34.410156-75.695312c-3.628906-7.984376-5.507813-16.652344-5.507813-25.425782v-6.230468c0-16.296876 6.472657-31.929688 17.996094-43.453126l44.09375-66.710937c11.800782-17.855469 31.773438-28.59375 53.175782-28.59375h8.085937c16.175781-23.9375 43.5625-39.675781 74.621094-39.675781 29.800781 0 56.214843 14.484375 72.59375 36.796875l2.027343 2.878906h8.085938c21.402344 0 41.375 10.738281 53.175781 28.59375l44.09375 66.710937c11.523438 11.523438 17.996094 27.15625 17.996094 43.453126v6.230468c0 8.773438-1.878906 17.441406-5.507813 25.425782l-34.40625 75.695312c-3.257812 7.171875-9.164062 12.808594-16.476562 15.734375l-18.664062 7.464844c-9.347657 3.742187-19.9375 2.636719-28.3125-2.945313-8.507813-5.671875-13.613282-15.21875-13.613282-25.441406v-43.539062zm0 0" fill="#b5a19c"/><path d="m343.671875 402.996094c-7.285156 0-14.511719-2.125-20.746094-6.285156-10.433593-6.953126-16.660156-18.585938-16.660156-31.117188v-36.714844h-148.320313v36.714844c0 12.535156-6.226562 24.167969-16.65625 31.117188-10.242187 6.839843-23.191406 8.191406-34.636718 3.605468l-18.660156-7.460937c-8.996094-3.597657-16.152344-10.4375-20.160157-19.253907l-34.40625-75.691406c-4.058593-8.929687-6.117187-18.4375-6.117187-28.25v-6.234375c0-18 6.917968-34.9375 19.5-47.769531l43.71875-66.152344c13.101562-19.824218 35.113281-31.660156 58.871094-31.660156h4.542968c18.230469-24.910156 47.179688-39.675781 78.164063-39.675781 30.707031 0 59.902343 14.796875 78.09375 39.585937l.066406.089844h4.546875c23.753906 0 45.765625 11.832031 58.875 31.65625l43.71875 66.15625c12.578125 12.835938 19.5 29.769531 19.5 47.769531v6.234375c0 9.804688-2.058594 19.308594-6.121094 28.25l-34.40625 75.695313c-4.007812 8.816406-11.164062 15.652343-20.15625 19.25l-18.664062 7.464843c-4.476563 1.792969-9.191406 2.675782-13.886719 2.675782zm-192.554687-87.769532h161.976562c3.773438 0 6.824219 3.058594 6.824219 6.828126v43.539062c0 7.957031 3.953125 15.34375 10.582031 19.761719 6.5 4.328125 14.726562 5.1875 21.992188 2.289062l18.660156-7.464843c5.707031-2.285157 10.253906-6.625 12.800781-12.222657l34.40625-75.691406c3.246094-7.152344 4.894531-14.761719 4.894531-22.605469v-6.230468c0-14.589844-5.679687-28.304688-16-38.621094-.328125-.324219-.613281-.679688-.867187-1.0625l-44.085938-66.714844c-10.574219-15.984375-28.328125-25.535156-47.488281-25.535156h-8.085938c-2.21875 0-4.300781-1.078125-5.582031-2.890625l-2.027343-2.878907c-15.550782-21.1875-40.628907-33.902343-67.011719-33.902343-27.664063 0-53.449219 13.707031-68.960938 36.667969-1.269531 1.878906-3.390625 3.003906-5.65625 3.003906h-8.085937c-19.164063 0-36.914063 9.546875-47.480469 25.535156l-44.09375 66.710938c-.253906.386718-.546875.742187-.871094 1.0625-10.316406 10.320312-15.996093 24.035156-15.996093 38.621093v6.234375c0 7.851563 1.644531 15.457032 4.890624 22.601563l34.40625 75.695312c2.546876 5.597657 7.089844 9.9375 12.804688 12.21875l18.660156 7.464844c7.273438 2.914063 15.496094 2.046875 21.996094-2.289063 6.617188-4.414062 10.570312-11.796874 10.570312-19.757812v-43.542969c0-3.765625 3.058594-6.824219 6.828126-6.824219zm0 0" fill="#4c241d"/><path d="m151.117188 328.882812c-3.769532 0-6.828126-3.058593-6.828126-6.828124 0-13.175782-2.34375-26.105469-6.96875-38.433594l-19.59375-52.246094c-1.320312-3.53125.46875-7.464844 3.996094-8.789062 3.535156-1.304688 7.464844.464843 8.792969 3.996093l19.589844 52.246094c5.203125 13.867187 7.839843 28.410156 7.839843 43.226563 0 3.769531-3.058593 6.828124-6.828124 6.828124zm0 0" fill="#4c241d"/><path d="m268.101562 396.832031c0-12.265625-16.117187-22.210937-35.996093-22.210937-19.878907 0-35.992188 9.945312-35.992188 22.210937s16.113281 22.210938 35.992188 22.210938c19.878906 0 35.996093-9.945313 35.996093-22.210938zm0 0" fill="#e7d1c4"/><path d="m232.105469 425.867188c-24.011719 0-42.824219-12.753907-42.824219-29.035157 0-16.285156 18.8125-29.039062 42.824219-29.039062 24.015625 0 42.820312 12.753906 42.820312 29.039062 0 16.28125-18.804687 29.035157-42.820312 29.035157zm0-44.421876c-17.191407 0-29.171875 8.109376-29.171875 15.386719 0 7.273438 11.980468 15.382813 29.171875 15.382813 17.1875 0 29.167969-8.109375 29.167969-15.382813 0-7.277343-11.980469-15.386719-29.167969-15.386719zm0 0" fill="#4c241d"/><path d="m313.09375 328.882812c-3.773438 0-6.828125-3.058593-6.828125-6.828124 0-14.800782 2.640625-29.34375 7.839844-43.226563l19.59375-52.246094c1.328125-3.535156 5.261719-5.304687 8.792969-3.996093 3.527343 1.324218 5.3125 5.257812 3.992187 8.789062l-19.589844 52.246094c-4.628906 12.339844-6.976562 25.277344-6.976562 38.433594 0 3.769531-3.050781 6.828124-6.824219 6.828124zm0 0" fill="#4c241d"/><path d="m250.101562 218.503906s-12.410156-102.976562 7.292969-128.636718h-50.578125c19.707032 25.660156 7.292969 128.636718 7.292969 128.636718-9 81.691406-62.992187 99.839844-62.992187 99.839844v35.175781c0 20.675781 16.617187 37.4375 37.117187 37.4375h8.539063c5.523437 0 11.007812-.898437 16.246093-2.660156 5.429688-1.828125 18.578125-2.675781 19.039063-2.488281v.003906c-.003906-.003906.046875 0 .046875-.003906.003906.003906.050781 0 .050781.003906v-.003906c.460938-.1875 13.609375.660156 19.039062 2.488281 5.238282 1.761719 10.722657 2.660156 16.242188 2.660156h8.539062c20.503907 0 37.121094-16.761719 37.121094-37.4375v-35.175781c-.003906 0-53.996094-18.152344-62.996094-99.839844zm0 0" fill="#e7d1c4"/><path d="m275.980469 397.785156h-8.539063c-6.269531 0-12.46875-1.015625-18.421875-3.019531-3.773437-1.265625-13.832031-2.132813-16.265625-2.160156-.226562.03125-.464844.03125-.691406.035156-.203125 0-.402344-.011719-.609375-.027344-2.359375.023438-12.546875.90625-16.25 2.152344-5.960937 2.003906-12.160156 3.019531-18.425781 3.019531h-8.539063c-24.234375 0-43.945312-19.859375-43.945312-44.269531v-35.171875c0-2.933594 1.871093-5.535156 4.648437-6.46875 2.015625-.699219 50.023438-18.152344 58.382813-94.113281 3.367187-27.949219 8.84375-104.511719-5.914063-123.738281-1.589844-2.058594-1.863281-4.84375-.707031-7.175782 1.144531-2.332031 3.519531-3.808594 6.121094-3.808594h50.570312c2.601563 0 4.976563 1.476563 6.121094 3.808594 1.152344 2.332032.882813 5.117188-.707031 7.175782-14.765625 19.238281-9.28125 95.792968-5.917969 123.667968 0 .023438 0 .042969.003906.070313 8.421875 76.464843 57.875 93.941406 58.375 94.113281 2.78125.933594 4.652344 3.535156 4.652344 6.46875v35.171875c-.003906 24.410156-19.714844 44.269531-43.941406 44.269531zm-46.519531-5.660156s.003906 0 .003906.003906c0-.003906-.003906-.003906-.003906-.003906zm-.027344-.007812c.007812 0 .015625.003906.019531.007812-.007813-.003906-.011719-.007812-.019531-.007812zm-.019532-.007813c.007813 0 .011719.003906.019532.003906-.007813 0-.011719-.003906-.019532-.003906zm4.011719-13.0625c6.347657 0 17.242188 1.871094 19.949219 2.78125 4.546875 1.527344 9.277344 2.300781 14.066406 2.300781h8.539063c16.699219 0 30.285156-13.730468 30.285156-30.613281v-30.640625c-14.046875-6.617188-55.03125-31.863281-62.9375-103.589844-1.1875-9.828125-9.902344-86.859375 2.964844-122.589844h-28.375c12.882812 35.78125 4.128906 112.976563 2.96875 122.628907-7.894531 71.691406-48.894531 96.933593-62.945313 103.554687v30.640625c0 16.878907 13.589844 30.613281 30.292969 30.613281h8.539063c4.785156 0 9.519531-.777343 14.070312-2.304687 3.15625-1.058594 14.042969-2.847656 20.375-2.785156.359375-.042969.742188-.050781 1.09375-.054688.253906.007813.507812.027344.753906.0625.113282-.003906.238282-.003906.359375-.003906zm0 0" fill="#4c241d"/><path d="m263.746094 331.117188c0-10.921876-14.164063-19.777344-31.640625-19.777344-17.472657 0-31.640625 8.855468-31.640625 19.777344 0 10.921874 14.167968 19.773437 31.640625 19.773437 17.476562 0 31.640625-8.851563 31.640625-19.773437zm0 0" fill="#6b4f5b"/><g fill="#4c241d"><path d="m232.105469 357.714844c-21.574219 0-38.464844-11.683594-38.464844-26.597656 0-14.917969 16.890625-26.601563 38.464844-26.601563s38.46875 11.683594 38.46875 26.601563c0 14.914062-16.894531 26.597656-38.46875 26.597656zm0-39.546875c-14.199219 0-24.8125 6.839843-24.8125 12.949219 0 6.109374 10.613281 12.945312 24.8125 12.945312s24.8125-6.835938 24.8125-12.945312c0-6.109376-10.613281-12.949219-24.8125-12.949219zm0 0"/><path d="m232.105469 389.355469c-3.773438 0-6.824219-3.054688-6.824219-6.824219v-31.640625c0-3.769531 3.050781-6.828125 6.824219-6.828125 3.773437 0 6.828125 3.058594 6.828125 6.828125v31.640625c0 3.769531-3.054688 6.824219-6.828125 6.824219zm0 0"/><path d="m303.296875 236.199219c0 6.550781-5.3125 11.863281-11.867187 11.863281-6.550782 0-11.863282-5.3125-11.863282-11.863281 0-6.554688 5.3125-11.867188 11.863282-11.867188 6.554687 0 11.867187 5.3125 11.867187 11.867188zm0 0"/><path d="m184.648438 236.199219c0 6.550781-5.3125 11.863281-11.867188 11.863281-6.550781 0-11.863281-5.3125-11.863281-11.863281 0-6.554688 5.3125-11.867188 11.863281-11.867188 6.554688 0 11.867188 5.3125 11.867188 11.867188zm0 0"/></g></svg>