<svg height="430pt" viewBox="-10 0 430 430.08442" width="430pt" xmlns="http://www.w3.org/2000/svg"><path d="m307.242188 153.601562c0 84.828126-68.769532 153.597657-153.601563 153.597657-84.828125 0-153.5976562-68.769531-153.5976562-153.597657 0-84.832031 68.7695312-153.601562 153.5976562-153.601562 84.832031 0 153.601563 68.769531 153.601563 153.601562zm0 0" fill="#d9be6f"/><path d="m141.0625 97.914062c21.328125 21.328126 50.972656 78.730469 29.648438 100.058594-21.328126 21.328125-85.558594-1.496094-106.882813-22.824218-21.328125-21.328126-21.328125-55.90625 0-77.234376 21.328125-21.328124 55.90625-21.324218 77.234375 0zm0 0" fill="#edebdc"/><path d="m144.078125 213.304688c-30.269531 0-68.9375-17.179688-85.082031-33.328126-23.953125-23.953124-23.953125-62.933593 0-86.886718 23.960937-23.953125 62.933594-23.953125 86.894531 0 20.839844 20.835937 56.058594 83.300781 29.644531 109.710937-7.460937 7.457031-18.710937 10.503907-31.457031 10.503907zm-41.636719-124.535157c-12.238281 0-24.472656 4.660157-33.792968 13.972657-18.632813 18.632812-18.632813 48.949218 0 67.582031 20.355468 20.351562 80.109374 39.929687 97.234374 22.824219 17.246094-17.246094-9.628906-70.382813-29.648437-90.40625-9.320313-9.3125-21.550781-13.972657-33.792969-13.972657zm0 0" fill="#4c241d"/><path d="m309.585938 97.914062c-21.328126 21.328126-50.976563 78.730469-29.652344 100.058594 21.332031 21.328125 85.558594-1.496094 106.886718-22.824218 21.328126-21.328126 21.328126-55.90625 0-77.234376-21.328124-21.324218-55.90625-21.324218-77.234374 0zm0 0" fill="#edebdc"/><path d="m306.570312 213.304688c-12.746093 0-24-3.046876-31.460937-10.503907-26.414063-26.410156 8.804687-88.875 29.644531-109.710937 23.960938-23.953125 62.933594-23.953125 86.894532 0 23.953124 23.953125 23.953124 62.933594 0 86.886718-16.144532 16.144532-54.8125 33.328126-85.078126 33.328126zm7.839844-110.5625c-20.019531 20.019531-46.894531 73.15625-29.644531 90.40625 17.105469 17.101562 76.886719-2.476563 97.230469-22.824219 18.636718-18.632813 18.636718-48.949219 0-67.582031-18.625-18.625-48.949219-18.632813-67.585938 0zm0 0" fill="#4c241d"/><path d="m314.480469 124.050781c-12.433594 12.433594-29.714844 45.894531-17.285157 58.328125 12.433594 12.433594 49.875-.875 62.308594-13.304687 12.429688-12.429688 12.429688-32.589844 0-45.023438-12.433594-12.429687-32.589844-12.429687-45.023437 0zm0 0" fill="#ffded5"/><path d="m312.808594 194.136719c-8.199219 0-15.511719-2.007813-20.441406-6.929688-7.578126-7.582031-8.359376-20.167969-2.246094-36.398437 4.363281-11.570313 12.207031-24.257813 19.535156-31.582032 15.058594-15.070312 39.597656-15.085937 54.671875 0 7.300781 7.300782 11.328125 17.011719 11.328125 27.335938 0 10.328125-4.027344 20.039062-11.328125 27.339844-9.984375 9.984375-32.996094 20.230468-51.519531 20.234375zm24.179687-72.570313c-6.398437 0-12.804687 2.441406-17.679687 7.3125-4.890625 4.894532-12.113282 15.347656-16.40625 26.742188-3.90625 10.375-4.230469 18.574218-.878906 21.933594 8.125 8.105468 41.007812-1.664063 52.652343-13.308594 4.730469-4.722656 7.328125-11.003906 7.328125-17.683594s-2.597656-12.960938-7.328125-17.683594c-4.871093-4.871094-11.28125-7.3125-17.6875-7.3125zm-22.507812 2.484375h.066406zm0 0" fill="#4c241d"/><path d="m136.164062 124.050781c12.433594 12.433594 29.714844 45.894531 17.285157 58.328125-12.433594 12.433594-49.875-.875-62.308594-13.304687-12.429687-12.429688-12.429687-32.589844 0-45.023438 12.433594-12.429687 32.589844-12.429687 45.023437 0zm0 0" fill="#ffded5"/><path d="m137.835938 194.136719c-18.519532 0-41.53125-10.25-51.519532-20.234375-7.300781-7.300782-11.328125-17.011719-11.328125-27.339844 0-10.324219 4.027344-20.035156 11.328125-27.335938 15.074219-15.085937 39.597656-15.0625 54.671875 0 7.328125 7.324219 15.175781 20.011719 19.535157 31.582032 6.113281 16.230468 5.332031 28.816406-2.246094 36.398437-4.921875 4.921875-12.242188 6.929688-20.441406 6.929688zm-24.1875-72.570313c-6.398438 0-12.804688 2.441406-17.679688 7.3125-4.726562 4.722656-7.324219 11.003906-7.324219 17.683594s2.597657 12.960938 7.324219 17.683594c11.65625 11.640625 44.527344 21.410156 52.65625 13.304687 3.351562-3.355469 3.027344-11.554687-.882812-21.929687-4.292969-11.398438-11.511719-21.851563-16.40625-26.742188-4.871094-4.871094-11.277344-7.3125-17.6875-7.3125zm0 0" fill="#4c241d"/><path d="m360.777344 331.015625c0 103.636719-59.355469 91.828125-132.578125 91.828125-73.222657 0-132.582031 11.808594-132.582031-91.828125 0-103.640625 59.359374-187.65625 132.582031-187.65625 73.222656 0 132.578125 84.015625 132.578125 187.65625zm0 0" fill="#edebdc"/><path d="m267.34375 430.078125c-6.109375 0-12.375-.09375-18.796875-.195313-13.265625-.207031-27.445313-.207031-40.699219 0-39.472656.625-73.554687 1.152344-95.699218-20.65625-15.71875-15.476562-23.359376-41.0625-23.359376-78.210937 0-107.238281 62.539063-194.480469 139.40625-194.480469 76.867188 0 139.40625 87.242188 139.40625 194.480469 0 37.15625-7.640624 62.738281-23.359374 78.210937-18.546876 18.257813-45.460938 20.851563-76.898438 20.851563zm-39.148438-14.058594c6.996094 0 13.859376.105469 20.566407.210938 36.367187.566406 67.828125 1.058593 85.902343-16.734375 12.976563-12.777344 19.285157-35.175782 19.285157-68.480469 0-99.710937-56.414063-180.832031-125.753907-180.832031-69.339843 0-125.753906 81.121094-125.753906 180.832031 0 33.304687 6.308594 55.703125 19.289063 68.480469 18.066406 17.796875 49.464843 17.328125 85.90625 16.734375 6.699219-.105469 13.566406-.210938 20.558593-.210938zm0 0" fill="#4c241d"/><path d="m218.183594 264.628906c-2.5-2.859375-.46875-7.332031 3.324218-7.332031h11.742188c3.796875 0 5.828125 4.472656 3.328125 7.332031-4.871094 5.566406-13.527344 5.566406-18.394531 0zm0 0" fill="#6b4f5b"/><g fill="#4c241d"><path d="m227.382812 275.628906c-5.5 0-10.726562-2.371094-14.339843-6.507812-2.941407-3.363282-3.621094-7.976563-1.773438-12.046875 1.847657-4.070313 5.773438-6.601563 10.238281-6.601563h11.742188c4.464844 0 8.394531 2.53125 10.238281 6.601563 1.847657 4.070312 1.167969 8.6875-1.773437 12.050781-3.613282 4.132812-8.839844 6.503906-14.332032 6.503906zm0 0"/><path d="m184.363281 228.691406c0 5.65625-4.585937 10.242188-10.242187 10.242188-5.652344 0-10.238282-4.585938-10.238282-10.242188 0-5.652344 4.585938-10.238281 10.238282-10.238281 5.65625 0 10.242187 4.585937 10.242187 10.238281zm0 0"/><path d="m286.761719 228.691406c0 5.65625-4.585938 10.242188-10.238281 10.242188-5.65625 0-10.242188-4.585938-10.242188-10.242188 0-5.652344 4.585938-10.238281 10.242188-10.238281 5.652343 0 10.238281 4.585937 10.238281 10.238281zm0 0"/><path d="m286.769531 286.71875c-2.320312 0-4.582031-1.179688-5.859375-3.3125-1.941406-3.234375-.894531-7.425781 2.339844-9.363281l34.132812-20.480469c3.238282-1.941406 7.425782-.890625 9.363282 2.339844 1.941406 3.234375.894531 7.425781-2.339844 9.363281l-34.132812 20.480469c-1.097657.660156-2.3125.972656-3.503907.972656zm0 0"/><path d="m320.890625 307.199219c-1.195313 0-2.410156-.3125-3.507813-.972657l-34.132812-20.480468c-3.234375-1.9375-4.28125-6.132813-2.339844-9.363282 1.9375-3.234374 6.132813-4.28125 9.363282-2.339843l34.132812 20.476562c3.234375 1.941407 4.28125 6.136719 2.339844 9.367188-1.277344 2.132812-3.535156 3.3125-5.855469 3.3125zm0 0"/><path d="m320.894531 286.71875h-34.132812c-3.773438 0-6.828125-3.054688-6.828125-6.824219s3.054687-6.828125 6.828125-6.828125h34.132812c3.773438 0 6.828125 3.058594 6.828125 6.828125s-3.054687 6.824219-6.828125 6.824219zm0 0"/><path d="m170.703125 286.71875c-1.195313 0-2.40625-.3125-3.507813-.972656l-34.132812-20.480469c-3.234375-1.9375-4.28125-6.132813-2.339844-9.363281 1.941406-3.230469 6.125-4.28125 9.363282-2.339844l34.136718 20.480469c3.234375 1.9375 4.277344 6.132812 2.339844 9.363281-1.28125 2.132812-3.539062 3.3125-5.859375 3.3125zm0 0"/><path d="m136.582031 307.199219c-2.320312 0-4.582031-1.179688-5.859375-3.3125-1.941406-3.234375-.894531-7.425781 2.339844-9.367188l34.132812-20.476562c3.238282-1.941407 7.425782-.890625 9.367188 2.339843 1.9375 3.230469.890625 7.425782-2.339844 9.363282l-34.136718 20.480468c-1.097657.660157-2.3125.972657-3.503907.972657zm0 0"/><path d="m170.707031 286.71875h-34.132812c-3.773438 0-6.824219-3.054688-6.824219-6.824219s3.050781-6.828125 6.824219-6.828125h34.132812c3.773438 0 6.828125 3.058594 6.828125 6.828125s-3.054687 6.824219-6.828125 6.824219zm0 0"/><path d="m226.363281 300.375c-3.773437 0-6.828125-3.058594-6.828125-6.828125v-22.992187c0-3.769532 3.054688-6.824219 6.828125-6.824219 3.773438 0 6.828125 3.054687 6.828125 6.824219v22.992187c0 3.769531-3.054687 6.828125-6.828125 6.828125zm0 0"/></g></svg>