<svg height="431pt" viewBox="0 -4 431.80202 431" width="431pt" xmlns="http://www.w3.org/2000/svg"><path d="m307.199219 154c0 84.832031-68.769531 153.601562-153.597657 153.601562-84.832031 0-153.601562-68.769531-153.601562-153.601562 0-84.828125 68.769531-153.597656 153.601562-153.597656 84.828126 0 153.597657 68.769531 153.597657 153.597656zm0 0" fill="#d9be6f"/><path d="m378.722656 217.183594-59.609375-59.609375c-4.867187-4.867188-4.867187-12.761719 0-17.625 24.460938-24.460938 64.117188-24.460938 88.574219 0l6.21875 6.21875c14.761719 14.761719 14.761719 38.695312 0 53.457031l-17.558594 17.558594c-4.867187 4.867187-12.757812 4.867187-17.625 0zm0 0" fill="#6b4f5b"/><path d="m387.535156 227.648438c-4.941406 0-9.878906-1.882813-13.636718-5.640626l-59.613282-59.613281c-3.644531-3.640625-5.648437-8.484375-5.648437-13.636719 0-5.152343 2.003906-9.992187 5.648437-13.636718 13.117188-13.121094 30.558594-20.347656 49.109375-20.347656 18.554688 0 35.996094 7.226562 49.113281 20.347656l6.222657 6.21875c8.425781 8.429687 13.070312 19.632812 13.070312 31.554687 0 11.917969-4.644531 23.125-13.070312 31.554688l-17.558594 17.558593c-3.757813 3.761719-8.699219 5.640626-13.636719 5.640626zm-24.136718-99.21875c-14.902344 0-28.917969 5.804687-39.457032 16.34375-1.0625 1.066406-1.652344 2.480468-1.652344 3.984374 0 1.507813.589844 2.925782 1.652344 3.988282l59.609375 59.609375c2.195313 2.191406 5.765625 2.195312 7.96875 0l17.558594-17.554688c5.851563-5.851562 9.074219-13.632812 9.074219-21.90625 0-8.273437-3.226563-16.046875-9.074219-21.898437l-6.222656-6.222656c-10.539063-10.539063-24.550781-16.34375-39.457031-16.34375zm0 0" fill="#4c241d"/><path d="m92.320312 217.183594 59.605469-59.609375c4.867188-4.867188 4.867188-12.761719 0-17.625-24.457031-24.460938-64.113281-24.460938-88.570312 0l-6.21875 6.21875c-14.761719 14.761719-14.761719 38.695312 0 53.457031l17.554687 17.558594c4.867188 4.867187 12.761719 4.867187 17.628906 0zm0 0" fill="#6b4f5b"/><path d="m83.503906 227.648438c-4.9375 0-9.875-1.882813-13.636718-5.640626l-17.554688-17.558593c-8.429688-8.429688-13.074219-19.636719-13.074219-31.554688 0-11.921875 4.644531-23.128906 13.074219-31.554687l6.21875-6.21875c13.117188-13.121094 30.558594-20.347656 49.113281-20.347656 18.550781 0 35.992188 7.226562 49.109375 20.347656 3.644532 3.644531 5.652344 8.484375 5.652344 13.636718 0 5.152344-2.007812 9.996094-5.652344 13.636719l-59.609375 59.613281c-3.761719 3.761719-8.703125 5.640626-13.640625 5.640626zm24.140625-99.21875c-14.90625 0-28.921875 5.804687-39.460937 16.34375l-6.222656 6.222656c-5.847657 5.851562-9.070313 13.625-9.070313 21.898437 0 8.273438 3.222656 16.054688 9.070313 21.90625l17.558593 17.554688c2.199219 2.195312 5.769531 2.191406 7.96875 0l59.609375-59.609375c1.066406-1.0625 1.652344-2.480469 1.652344-3.988282 0-1.503906-.585938-2.917968-1.652344-3.984374-10.535156-10.539063-24.550781-16.34375-39.453125-16.34375zm0 0" fill="#4c241d"/><path d="m415.160156 304.1875c0 80.0625-95.167968 112.640625-176.226562 112.640625s-183.054688-32.578125-183.054688-112.640625 80.65625-174.078125 183.054688-174.078125c109.226562 0 176.226562 94.015625 176.226562 174.078125zm0 0" fill="#fff"/><path d="m238.933594 423.65625c-45.722656 0-91.292969-9.859375-125.023438-27.042969-42.433594-21.617187-64.859375-53.574219-64.859375-92.425781 0-83.660156 82.945313-180.90625 189.882813-180.90625 51.824218 0 99.460937 21.042969 134.128906 59.257812 30.636719 33.765626 48.929688 79.242188 48.929688 121.648438 0 82.082031-94.890626 119.46875-183.058594 119.46875zm0-286.722656c-79.824219 0-176.230469 74.609375-176.230469 167.253906 0 77.632812 105.390625 105.8125 176.230469 105.8125 81.589844 0 169.402344-33.113281 169.402344-105.8125 0-80.773438-68.070313-167.253906-169.402344-167.253906zm0 0" fill="#4c241d"/><path d="m341.457031 241.652344c-15.039062-22.738282-39.523437-33.042969-54.683593-23.015625-15.15625 10.027343-15.253907 36.59375-.210938 59.332031s39.523438 33.042969 54.683594 23.011719c15.160156-10.027344 15.253906-36.589844.210937-59.328125zm0 0" fill="#6b4f5b"/><path d="m327.777344 311.714844c-16.140625 0-34.332032-10.988282-46.894532-29.976563-17.382812-26.28125-16.441406-56.5 2.140626-68.789062 18.578124-12.289063 46.757812-1.339844 64.148437 24.941406 17.382813 26.28125 16.441406 56.5-2.140625 68.789063-5.15625 3.410156-11.054688 5.035156-17.253906 5.035156zm-27.605469-90.089844c-3.554687 0-6.832031.871094-9.617187 2.710938-11.792969 7.796874-11.003907 30.636718 1.714843 49.867187 12.726563 19.242187 33.441407 28.894531 45.226563 21.089844 11.792968-7.796875 11.007812-30.636719-1.710938-49.871094-9.722656-14.691406-24.105468-23.796875-35.613281-23.796875zm0 0" fill="#4c241d"/><path d="m191.0625 218.644531c-15.160156-10.027343-39.640625.277344-54.683594 23.015625-15.042968 22.738282-14.945312 49.300782.210938 59.328125 15.160156 10.027344 39.644531-.277343 54.683594-23.015625 15.042968-22.738281 14.949218-49.300781-.210938-59.328125zm0 0" fill="#6b4f5b"/><path d="m150.089844 311.714844c-6.199219 0-12.09375-1.621094-17.253906-5.035156-18.582032-12.289063-19.523438-42.503907-2.140626-68.789063 17.390626-26.28125 45.566407-37.230469 64.148438-24.941406 18.582031 12.289062 19.523438 42.503906 2.140625 68.789062-12.558594 18.988281-30.757813 29.976563-46.894531 29.976563zm-8.007813-66.292969c-12.71875 19.234375-13.503906 42.070313-1.710937 49.871094 11.792968 7.800781 32.503906-1.859375 45.226562-21.089844 12.71875-19.230469 13.503906-42.066406 1.710938-49.867187-11.792969-7.800782-32.503906 1.859374-45.226563 21.085937zm0 0" fill="#4c241d"/><path d="m224.484375 327.652344-6.03125-6.898438c-4.488281-5.128906-.84375-13.152344 5.96875-13.152344h33.136719c6.8125 0 10.457031 8.023438 5.972656 13.152344l-6.035156 6.898438c-8.738282 9.988281-24.273438 9.988281-33.011719 0zm0 0" fill="#6b4f5b"/><g fill="#4c241d"><path d="m240.988281 341.972656c-8.292969 0-16.179687-3.585937-21.644531-9.828125l-6.035156-6.898437c-3.859375-4.414063-4.75-10.476563-2.324219-15.816406 2.421875-5.339844 7.574219-8.65625 13.433594-8.65625h33.140625c5.867187 0 11.015625 3.316406 13.4375 8.65625 2.425781 5.339843 1.53125 11.402343-2.324219 15.816406l-6.035156 6.898437c-5.460938 6.242188-13.347657 9.828125-21.648438 9.828125zm-11.363281-18.816406c5.730469 6.5625 17 6.5625 22.730469 0l6.035156-6.898438c.128906-.148437.46875-.535156.171875-1.183593-.292969-.648438-.808594-.648438-1.003906-.648438h-33.140625c-.191407 0-.707031 0-1 .648438-.296875.648437.039062 1.035156.171875 1.183593zm0 0"/><path d="m283.308594 375.867188c-3.773438 0-6.828125-3.054688-6.828125-6.828126 0-3.769531 3.054687-6.824218 6.828125-6.824218 5.644531 0 10.238281-4.59375 10.238281-10.242188 0-3.769531 3.054687-6.824218 6.828125-6.824218 3.769531 0 6.824219 3.054687 6.824219 6.824218 0 13.175782-10.71875 23.894532-23.890625 23.894532zm0 0"/><path d="m314.027344 249.574219c0 5.65625-4.585938 10.238281-10.242188 10.238281-5.652344 0-10.238281-4.582031-10.238281-10.238281s4.585937-10.238281 10.238281-10.238281c5.65625 0 10.242188 4.582031 10.242188 10.238281zm0 0"/><path d="m184.320312 249.574219c0 5.65625-4.585937 10.238281-10.242187 10.238281-5.652344 0-10.238281-4.582031-10.238281-10.238281s4.585937-10.238281 10.238281-10.238281c5.65625 0 10.242187 4.582031 10.242187 10.238281zm0 0"/></g></svg>