<svg height="423pt" viewBox="0 -11 423.25333 423" width="423pt" xmlns="http://www.w3.org/2000/svg"><path d="m307.199219 153.726562c0 84.832032-68.769531 153.601563-153.597657 153.601563-84.832031 0-153.601562-68.769531-153.601562-153.601563 0-84.832031 68.769531-153.601562 153.601562-153.601562 84.828126 0 153.597657 68.769531 153.597657 153.601562zm0 0" fill="#d9be6f"/><path d="m312.648438 229.011719c-30.210938 0-55.578126 25.933593-63.15625 61.15625h-39.84375c-8.085938-35.222657-35.144532-61.15625-67.367188-61.15625-38.605469 0-69.898438 37.160156-69.898438 83 0 23.019531 8.007813 43.703125 20.761719 58.722656 36.261719 17.9375 85.808594 23.972656 138.726563 23.972656 48.390625 0 91.0625-5.160156 123.234375-19.738281 14.0625-15.214844 23.070312-37.691406 23.070312-62.957031 0-45.839844-29.335937-83-65.527343-83zm0 0" fill="#edebdc"/><path d="m231.871094 401.535156c-61.8125 0-108.183594-8.074218-141.757813-24.675781-.832031-.414063-1.574219-.996094-2.179687-1.703125-14.425782-17-22.371094-39.421875-22.371094-63.144531 0-49.53125 34.414062-89.828125 76.71875-89.828125 33.015625 0 62.242188 24.882812 72.652344 61.15625h29.191406c9.808594-36.277344 37.363281-61.15625 68.519531-61.15625 39.894531 0 72.355469 40.296875 72.355469 89.828125 0 25.84375-9.066406 50.480469-24.878906 67.59375-.621094.667969-1.367188 1.207031-2.195313 1.582031-30.21875 13.691406-71.453125 20.347656-126.054687 20.347656zm-134.425782-36.292968c31.570313 15.230468 75.5625 22.640624 134.429688 22.640624 51.832031 0 90.828125-6.070312 119.140625-18.558593 12.941406-14.574219 20.332031-35.378907 20.332031-57.3125 0-42.003907-26.332031-76.175781-58.699218-76.175781-26.1875 0-49.414063 22.9375-56.480469 55.769531-.675781 3.144531-3.453125 5.390625-6.671875 5.390625h-39.847656c-3.179688 0-5.941407-2.199219-6.652344-5.300782-7.554688-32.886718-32.523438-55.859374-60.714844-55.859374-34.773438 0-63.066406 34.171874-63.066406 76.175781 0 19.984375 6.464844 38.832031 18.230468 53.230469zm257.660157 9.726562h.066406zm0 0" fill="#4c241d"/><path d="m416.425781 276.066406c0-94.648437-81.398437-194.019531-186.96875-194.019531-105.566406 0-195.324219 99.371094-195.324219 194.019531 0 47.203125 22.929688 76.828125 59.011719 94.671875-12.753906-15.023437-20.761719-35.703125-20.761719-58.726562 0-45.839844 31.292969-83 69.898438-83 32.222656 0 59.28125 25.933593 67.367188 61.160156h39.84375c7.578124-35.222656 32.945312-61.160156 63.15625-61.160156 36.191406 0 65.527343 37.160156 65.527343 83 0 25.265625-9.007812 47.746093-23.070312 62.960937 38.015625-17.226562 61.320312-47.644531 61.320312-98.90625zm0 0" fill="#6b4f5b"/><path d="m355.105469 381.796875c-2.132813 0-4.21875-1.007813-5.53125-2.828125-1.902344-2.636719-1.6875-6.246094.519531-8.632812 13.507812-14.613282 21.253906-35.875 21.253906-58.328126 0-42-26.335937-76.171874-58.703125-76.171874-26.1875 0-49.410156 22.933593-56.480469 55.765624-.671874 3.144532-3.449218 5.390626-6.671874 5.390626h-39.84375c-3.179688 0-5.941407-2.195313-6.652344-5.296876-7.554688-32.890624-32.523438-55.859374-60.714844-55.859374-34.773438 0-63.066406 34.167968-63.066406 76.171874 0 20.492188 6.792968 39.777344 19.132812 54.3125 2.09375 2.464844 2.167969 6.066407.175782 8.621094-1.996094 2.546875-5.519532 3.335938-8.40625 1.914063-41.675782-20.617188-62.808594-54.527344-62.808594-100.792969 0-47.980469 21.871094-98.011719 60.003906-137.253906 39.265625-40.410156 91.074219-63.589844 142.148438-63.589844 110.914062 0 193.792968 106.039062 193.792968 200.84375 0 50.109375-21.980468 85.480469-65.328125 105.125-.910156.414062-1.867187.609375-2.820312.609375zm-42.460938-159.613281c39.894531 0 72.355469 40.296875 72.355469 89.828125 0 14.796875-2.972656 29.199219-8.480469 42.019531 22.214844-18.046875 33.082031-43.78125 33.082031-77.96875 0-88.359375-77.042968-187.1875-180.140624-187.1875-106.160157 0-188.5 100.625-188.5 187.1875 0 31.265625 10.394531 55.476562 31.625 73.371094-4.597657-11.617188-7.027344-24.320313-7.027344-37.425782 0-49.527343 34.414062-89.824218 76.722656-89.824218 33.011719 0 62.238281 24.878906 72.652344 61.15625h29.191406c9.808594-36.277344 37.363281-61.15625 68.519531-61.15625zm0 0" fill="#4c241d"/><path d="m252.15625 274.695312 14.820312 16.894532c5.507813 6.273437 1.050782 16.109375-7.296874 16.109375l-12.582032 3.480469c-11.5 3.179687-23.683594 2.871093-35.007812-.886719l-7.816406-2.59375c-8.347657 0-12.800782-9.835938-7.296876-16.109375l14.820313-16.894532c10.691406-12.1875 29.667969-12.1875 40.359375 0zm0 0" fill="#fc8c29"/><g fill="#4c241d"><path d="m231.039062 320.191406c-7.121093 0-14.234374-1.140625-21.097656-3.417968l-6.902344-2.289063c-6.058593-.4375-11.277343-4.058594-13.824218-9.664063-2.714844-5.992187-1.707032-12.785156 2.625-17.734374l14.828125-16.894532c6.390625-7.285156 15.613281-11.464844 25.3125-11.464844 9.695312 0 18.914062 4.179688 25.304687 11.464844l14.828125 16.890625c4.335938 4.949219 5.339844 11.746094 2.628907 17.738281-2.574219 5.667969-7.882813 9.304688-14.023438 9.675782l-11.796875 3.261718c-5.875 1.625-11.882813 2.433594-17.882813 2.433594zm.941407-47.808594c-5.765625 0-11.246094 2.480469-15.046875 6.8125l-14.828125 16.894532c-1.066407 1.214844-.746094 2.457031-.460938 3.089844.289063.636718 1.015625 1.695312 2.628907 1.695312.734374 0 1.457031.113281 2.152343.34375l7.8125 2.59375c10.066407 3.347656 20.8125 3.621094 31.042969.789062l12.578125-3.480468c.59375-.164063 1.207031-.246094 1.820313-.246094 1.613281 0 2.339843-1.0625 2.625-1.695312.289062-.632813.605468-1.875-.460938-3.089844l-14.824219-16.890625s0 0 0-.003907c-3.800781-4.332031-9.277343-6.8125-15.039062-6.8125zm0 0"/><path d="m329.75 282.628906c0 9.230469-7.484375 16.714844-16.714844 16.714844-9.234375 0-16.71875-7.484375-16.71875-16.714844 0-9.234375 7.484375-16.714844 16.71875-16.714844 9.230469 0 16.714844 7.480469 16.714844 16.714844zm0 0"/><path d="m162.597656 282.628906c0 9.230469-7.480468 16.714844-16.714844 16.714844-9.230468 0-16.714843-7.484375-16.714843-16.714844 0-9.234375 7.484375-16.714844 16.714843-16.714844 9.234376 0 16.714844 7.480469 16.714844 16.714844zm0 0"/></g></svg>