<svg height="433pt" viewBox="0 -1 433.05046 433" width="433pt" xmlns="http://www.w3.org/2000/svg"><path d="m307.199219 153.625c0 84.832031-68.769531 153.601562-153.597657 153.601562-84.832031 0-153.601562-68.769531-153.601562-153.601562s68.769531-153.6015625 153.601562-153.6015625c84.828126 0 153.597657 68.7695315 153.597657 153.6015625zm0 0" fill="#d9be6f"/><path d="m386.925781 192.3125-53.023437 20.5-34.109375-88.230469 110.285156-42.636719 11.972656 30.96875c12.226563 31.625-3.5 67.171876-35.125 79.398438zm0 0" fill="#ffded5"/><path d="m333.902344 219.640625c-.941406 0-1.886719-.199219-2.761719-.585937-1.660156-.734376-2.953125-2.09375-3.605469-3.78125l-34.109375-88.230469c-1.359375-3.519531.390625-7.46875 3.90625-8.828125l110.289063-42.636719c3.507812-1.363281 7.464844.386719 8.824218 3.90625l11.976563 30.96875c6.574219 16.996094 6.132813 35.53125-1.242187 52.195313-7.375 16.664062-20.792969 29.460937-37.792969 36.03125l-53.027344 20.5c-.792969.304687-1.625.460937-2.457031.460937zm-25.28125-91.152344 29.1875 75.492188 46.660156-18.035157c13.59375-5.257812 24.324219-15.492187 30.226562-28.820312 5.890626-13.328125 6.246094-28.152344.992188-41.746094l-9.511719-24.605468zm0 0" fill="#4c241d"/><path d="m73.269531 192.3125 53.027344 20.5 34.109375-88.230469-110.289062-42.636719-11.972657 30.96875c-12.226562 31.625 3.5 67.171876 35.125 79.398438zm0 0" fill="#ffded5"/><path d="m126.296875 219.640625c-.820313 0-1.652344-.148437-2.460937-.460937l-53.023438-20.5c-.003906 0-.003906 0-.003906 0-35.085938-13.5625-52.589844-53.144532-39.027344-88.226563l11.972656-30.96875c.652344-1.6875 1.949219-3.046875 3.601563-3.78125 1.65625-.734375 3.539062-.777344 5.222656-.125l110.289063 42.636719c1.691406.652344 3.050781 1.953125 3.785156 3.601562.734375 1.660156.777344 3.539063.125 5.226563l-34.109375 88.230469c-1.050781 2.707031-3.632813 4.367187-6.371094 4.367187zm-50.566406-33.695313 46.660156 18.035157 29.1875-75.492188-97.554687-37.710937-9.507813 24.597656c-10.851563 28.0625 3.15625 59.71875 31.21875 70.570312zm0 0" fill="#4c241d"/><path d="m341.355469 149.488281c-2.613281 0-5.109375-1.511719-6.242188-4.050781-1.539062-3.441406.015625-7.480469 3.453125-9.015625l42.46875-18.929687c3.464844-1.523438 7.480469.015624 9.011719 3.457031 1.539063 3.441406-.015625 7.480469-3.453125 9.015625l-42.464844 18.929687c-.90625.402344-1.847656.59375-2.773437.59375zm0 0" fill="#4c241d"/><path d="m118.847656 149.488281c-.929687 0-1.875-.191406-2.777344-.59375l-42.46875-18.929687c-3.441406-1.535156-4.988281-5.574219-3.453124-9.015625 1.535156-3.445313 5.578124-4.976563 9.015624-3.457031l42.464844 18.929687c3.445313 1.535156 4.992188 5.574219 3.457032 9.015625-1.132813 2.539062-3.625 4.050781-6.238282 4.050781zm0 0" fill="#4c241d"/><path d="m399.582031 261.679688c0-89.25-75.882812-161.597657-169.480469-161.597657-93.601562 0-169.484374 72.347657-169.484374 161.597657s75.882812 161.597656 169.484374 161.597656c93.597657 0 169.480469-72.347656 169.480469-161.597656zm0 0" fill="#ffded5"/><path d="m230.101562 430.105469c-97.21875 0-176.3125-75.554688-176.3125-168.429688 0-92.871093 79.09375-168.421875 176.3125-168.421875 97.210938 0 176.304688 75.554688 176.304688 168.421875 0 92.871094-79.09375 168.429688-176.304688 168.429688zm0-323.195313c-89.691406 0-162.660156 69.429688-162.660156 154.769532 0 85.34375 72.96875 154.773437 162.660156 154.773437 89.683594 0 162.652344-69.429687 162.652344-154.773437 0-85.339844-72.96875-154.769532-162.652344-154.769532zm0 0" fill="#4c241d"/><path d="m297.101562 301.09375c0 28.300781-29.996093 27.589844-67 27.589844-37.007812 0-67.003906.710937-67.003906-27.589844 0-28.296875 29.996094-51.238281 67.003906-51.238281 37.003907 0 67 22.941406 67 51.238281zm0 0" fill="#bf7e68"/><g fill="#4c241d"><path d="m235.40625 335.511719c-.886719 0-1.773438 0-2.664062 0h-5.28125c-18.613282.039062-34.96875.019531-47.542969-3.714844-15.691407-4.65625-23.648438-14.984375-23.648438-30.703125 0-32.015625 33.121094-58.066406 73.832031-58.066406 40.707032 0 73.828126 26.050781 73.828126 58.066406 0 15.71875-7.953126 26.046875-23.644532 30.703125-11.972656 3.554687-27.246094 3.714844-44.878906 3.714844zm-5.304688-13.652344h2.644532c16.914062.015625 32.988281.015625 43.652344-3.152344 9.855468-2.921875 13.875-8.027343 13.875-17.613281 0-24.488281-26.992188-44.410156-60.171876-44.410156-33.183593 0-60.183593 19.921875-60.183593 44.410156 0 9.585938 4.019531 14.691406 13.882812 17.613281 10.664063 3.167969 26.796875 3.15625 43.652344 3.152344zm0 0"/><path d="m312.871094 210.441406c0 8.707032-7.058594 15.765625-15.769532 15.765625-8.707031 0-15.765624-7.058593-15.765624-15.765625 0-8.707031 7.058593-15.765625 15.765624-15.765625 8.710938 0 15.769532 7.058594 15.769532 15.765625zm0 0"/><path d="m170.976562 210.441406c0 8.707032-7.058593 15.765625-15.765624 15.765625-8.707032 0-15.765626-7.058593-15.765626-15.765625 0-8.707031 7.058594-15.765625 15.765626-15.765625 8.707031 0 15.765624 7.058594 15.765624 15.765625zm0 0"/><path d="m289.21875 374.925781c-3.773438 0-6.824219-3.058593-6.824219-6.828125 0-3.769531 3.050781-6.824218 6.824219-6.824218 9.277344 0 16.820312-7.546876 16.820312-16.824219 0-3.769531 3.054688-6.828125 6.828126-6.828125 3.773437 0 6.824218 3.058594 6.824218 6.828125.003906 16.800781-13.671875 30.476562-30.472656 30.476562zm0 0"/><path d="m204.800781 310.546875c-3.773437 0-6.828125-3.054687-6.828125-6.824219v-23.804687c0-3.769531 3.054688-6.824219 6.828125-6.824219 3.773438 0 6.824219 3.054688 6.824219 6.824219v23.804687c0 3.769532-3.050781 6.824219-6.824219 6.824219zm0 0"/><path d="m252.585938 310.546875c-3.773438 0-6.824219-3.054687-6.824219-6.824219v-23.804687c0-3.769531 3.050781-6.824219 6.824219-6.824219 3.773437 0 6.828124 3.054688 6.828124 6.824219v23.804687c0 3.769532-3.054687 6.824219-6.828124 6.824219zm0 0"/></g></svg>