<svg height="427pt" viewBox="0 -33 427.89558 427" width="427pt" xmlns="http://www.w3.org/2000/svg"><path d="m307.199219 152.777344c0-84.128906-68.769531-152.328125-153.597657-152.328125-84.832031 0-153.601562 68.199219-153.601562 152.328125s68.769531 152.332031 153.601562 152.332031c84.828126 0 153.597657-68.203125 153.597657-152.332031zm0 0" fill="#d9be6f"/><path d="m274.226562 133.347656s68.523438-58.734375 146.835938-48.945312c0 0-9.789062 88.101562-58.734375 127.261718zm0 0" fill="#b5a19c"/><path d="m362.328125 218.488281c-1.628906 0-3.246094-.582031-4.535156-1.726562l-88.097657-78.316407c-1.472656-1.304687-2.3125-3.191406-2.292968-5.15625.019531-1.972656.886718-3.839843 2.382812-5.128906 2.894532-2.480468 71.820313-60.605468 152.128906-50.53125 3.707032.460938 6.351563 3.8125 5.9375 7.527344-.414062 3.710938-10.6875 91.371094-61.257812 131.839844-1.253906 1-2.761719 1.492187-4.265625 1.492187zm-77.449219-84.808593 77.542969 68.929687c35.085937-31.921875 47.550781-91.902344 50.867187-112.113281-58.53125-4.308594-110.882812 30.171875-128.410156 43.183594zm0 0" fill="#4c241d"/><path d="m306.171875 139.496094s38.707031-33.179688 82.949219-27.648438c0 0-5.53125 49.769532-33.179688 71.886719zm0 0" fill="#6b4f5b"/><path d="m355.9375 190.5625c-1.625 0-3.246094-.582031-4.53125-1.726562l-49.765625-44.242188c-1.472656-1.304688-2.3125-3.191406-2.292969-5.160156.019532-1.972656.886719-3.839844 2.382813-5.117188 1.675781-1.449218 41.554687-35.089844 88.234375-29.242187 3.707031.460937 6.355468 3.8125 5.9375 7.527343-.238282 2.148438-6.179688 52.847657-35.699219 76.46875-1.25.996094-2.757813 1.492188-4.265625 1.492188zm-38.996094-50.628906 38.980469 34.648437c16.132813-16.234375 22.90625-43.675781 25.296875-56.496093-27.753906-.839844-52.972656 13.980468-64.277344 21.847656zm0 0" fill="#4c241d"/><path d="m176.332031 133.347656s-68.523437-58.734375-146.835937-48.945312c0 0 9.789062 88.101562 58.734375 127.261718zm0 0" fill="#b5a19c"/><path d="m88.230469 218.488281c-1.507813 0-3.019531-.492187-4.265625-1.492187-50.570313-40.46875-60.84375-128.128906-61.257813-131.839844-.410156-3.714844 2.234375-7.070312 5.9375-7.527344 80.378907-10.085937 149.238281 48.050782 152.132813 50.539063 1.496094 1.28125 2.367187 3.148437 2.382812 5.121093.015625 1.964844-.816406 3.851563-2.292968 5.15625l-88.101563 78.316407c-1.289063 1.144531-2.914063 1.726562-4.535156 1.726562zm-50.953125-127.992187c3.308594 20.210937 15.773437 80.191406 50.859375 112.113281l77.539062-68.921875c-17.558593-13-69.988281-47.394531-128.398437-43.191406zm0 0" fill="#4c241d"/><path d="m144.386719 139.496094s-38.707031-33.179688-82.949219-27.648438c0 0 5.53125 49.769532 33.179688 71.886719zm0 0" fill="#6b4f5b"/><path d="m94.621094 190.5625c-1.507813 0-3.019532-.492188-4.265625-1.492188-29.519531-23.621093-35.460938-74.320312-35.699219-76.46875-.414062-3.714843 2.230469-7.066406 5.9375-7.527343 46.710938-5.867188 86.566406 27.800781 88.238281 29.242187 1.496094 1.277344 2.367188 3.144532 2.382813 5.117188.019531 1.96875-.816406 3.855468-2.289063 5.160156l-49.769531 44.242188c-1.289062 1.144531-2.914062 1.726562-4.535156 1.726562zm-25.28125-72.472656c2.394531 12.820312 9.171875 40.257812 25.300781 56.492187l38.980469-34.648437c-11.300782-7.859375-36.425782-22.644532-64.28125-21.84375zm0 0" fill="#4c241d"/><path d="m378.667969 295.671875c14.109375-10.363281 28.242187-22 42.398437-35.066406-97.894531-195.785157-293.679687-195.785157-391.570312 0 13.765625 13.761719 27.589844 25.894531 41.457031 36.597656 57.625-96.566406 133.847656-105.121094 133.847656-105.121094v161.496094c13.617188 1.109375 27.273438.898437 40.960938-.71875v-160.777344s75.394531 8.492188 132.90625 103.589844zm0 0" fill="#b5a19c"/><path d="m221.699219 361.09375c-5.820313 0-11.640625-.242188-17.453125-.707031-3.546875-.292969-6.273438-3.253907-6.273438-6.804688v-153.148437c-20.167968 5.113281-76.578125 25.5625-121.15625 100.269531-1 1.671875-2.671875 2.839844-4.589844 3.207031-1.925781.367188-3.898437-.113281-5.441406-1.300781-14.320312-11.046875-28.488281-23.554687-42.117187-37.175781-2.078125-2.070313-2.59375-5.25-1.28125-7.878906 47.859375-95.71875 121.445312-150.613282 201.894531-150.613282 80.445312 0 154.03125 54.894532 201.890625 150.613282 1.363281 2.722656.761719 6.007812-1.476563 8.074218-13.980468 12.898438-28.449218 24.863282-42.988281 35.546875-1.546875 1.132813-3.515625 1.578125-5.375 1.191407-1.878906-.375-3.511719-1.519532-4.503906-3.160157-44.609375-73.769531-100.242187-93.800781-120.242187-98.800781v152.453125c0 3.460937-2.59375 6.371094-6.027344 6.78125-8.210938.964844-16.527344 1.453125-24.859375 1.453125zm-10.074219-13.90625c9.140625.460938 18.28125.300781 27.308594-.492188v-154.613281c0-1.949219.824218-3.796875 2.28125-5.09375 1.445312-1.285156 3.351562-1.894531 5.3125-1.691406 3.140625.359375 76.027344 9.558594 134.011718 100.449219 10.828126-8.222656 21.582032-17.171875 32.085938-26.679688-45.472656-88.078125-113.53125-138.472656-187.34375-138.472656-73.867188 0-141.972656 50.460938-187.445312 138.660156 10.214843 9.992188 20.707031 19.320313 31.3125 27.832032 58.113281-92.160157 131.710937-101.433594 134.890624-101.792969 1.902344-.226563 3.863282.398437 5.308594 1.699219 1.453125 1.292968 2.277344 3.148437 2.277344 5.085937zm0 0" fill="#4c241d"/><path d="m245.761719 192.082031v160.777344c43.980469-5.195313 88.308593-24.425781 132.90625-57.1875-57.511719-95.097656-132.90625-103.589844-132.90625-103.589844zm0 0" fill="#6b4f5b"/><path d="m245.761719 359.6875c-1.664063 0-3.28125-.605469-4.535157-1.726562-1.457031-1.292969-2.292968-3.148438-2.292968-5.101563v-160.777344c0-1.949219.824218-3.796875 2.28125-5.09375 1.445312-1.285156 3.351562-1.894531 5.3125-1.691406 3.210937.363281 79.40625 9.984375 137.980468 106.84375 1.824219 3.027344 1.046876 6.941406-1.800781 9.035156-45.609375 33.503907-91.414062 53.179688-136.148437 58.464844-.265625.03125-.53125.046875-.796875.046875zm6.824219-159.28125v144.628906c38.300781-6.007812 77.574218-23.1875 116.933593-51.167968-44.015625-69.398438-97.425781-88.582032-116.933593-93.460938zm0 0" fill="#4c241d"/><path d="m70.953125 297.203125c44.152344 34.074219 88.800781 52.71875 133.847656 56.378906v-161.5s-76.222656 8.558594-133.847656 105.121094zm0 0" fill="#6b4f5b"/><path d="m204.800781 360.40625c-.1875 0-.367187-.003906-.554687-.019531-46.417969-3.773438-92.667969-23.214844-137.460938-57.777344-2.738281-2.113281-3.464844-5.941406-1.695312-8.910156 58.6875-98.332031 135.699218-108.039063 138.949218-108.40625 1.902344-.226563 3.863282.398437 5.308594 1.699219 1.453125 1.292968 2.277344 3.148437 2.277344 5.085937v161.5c0 1.90625-.796875 3.730469-2.199219 5.019531-1.265625 1.171875-2.917969 1.808594-4.625 1.808594zm-124.804687-64.917969c38.726562 28.832031 78.351562 45.804688 117.976562 50.546875v-145.601562c-19.6875 4.992187-73.929687 24.609375-117.976562 95.054687zm0 0" fill="#4c241d"/><path d="m299.609375 332.523438c-37.351563-74.707032-112.058594-74.707032-149.410156 0-.765625 29.738281 148.660156 28.3125 149.410156 0zm0 0" fill="#edebdc"/><g fill="#4c241d"><path d="m222.632812 361.121094c-2.519531 0-4.945312-.035156-7.265624-.09375-21.855469-.574219-72.613282-4.507813-71.992188-28.679688.023438-1 .269531-1.988281.71875-2.882812 19.003906-38.007813 48.460938-59.800782 80.804688-59.800782 32.355468 0 61.808593 21.796876 80.816406 59.800782.5 1 .746094 2.113281.71875 3.234375-.59375 22.542969-49.941406 28.421875-83.800782 28.421875zm-65.371093-27.425782c2.226562 4.6875 20.132812 12.679688 58.464843 13.679688 44.59375 1.234375 73.261719-7.828125 76.707032-13.894531-16.601563-31.910157-41.113282-50.160157-67.535156-50.160157-26.472657 0-51.035157 18.328126-67.636719 50.375zm0 0"/><path d="m286.71875 249.621094c0 5.65625-4.582031 10.238281-10.238281 10.238281s-10.242188-4.582031-10.242188-10.238281 4.585938-10.238282 10.242188-10.238282 10.238281 4.582032 10.238281 10.238282zm0 0"/><path d="m184.320312 249.621094c0 5.65625-4.585937 10.238281-10.242187 10.238281-5.652344 0-10.238281-4.582031-10.238281-10.238281s4.585937-10.238282 10.238281-10.238282c5.65625 0 10.242187 4.582032 10.242187 10.238282zm0 0"/></g><path d="m207.660156 345.984375-10.085937-11.53125c-4.484375-5.128906-.839844-13.152344 5.972656-13.152344h41.242187c6.8125 0 10.453126 8.023438 5.96875 13.152344l-10.085937 11.53125c-8.734375 9.988281-24.273437 9.988281-33.011719 0zm0 0" fill="#6b4f5b"/><path d="m224.167969 360.300781c-8.292969 0-16.179688-3.578125-21.648438-9.824219l-10.078125-11.527343c-3.863281-4.421875-4.753906-10.480469-2.332031-15.820313 2.425781-5.34375 7.570313-8.65625 13.4375-8.65625h41.242187c5.867188 0 11.011719 3.320313 13.4375 8.660156 2.425782 5.335938 1.535157 11.394532-2.324218 15.816407l-10.085938 11.527343c-5.460937 6.246094-13.347656 9.824219-21.640625 9.824219-.003906 0-.003906 0-.007812 0zm-11.367188-18.8125c2.867188 3.28125 7.011719 5.160157 11.363281 5.160157h.007813c4.355469 0 8.496094-1.882813 11.359375-5.160157l10.085938-11.527343c.128906-.148438.46875-.539063.175781-1.1875-.292969-.644532-.816407-.644532-1.007813-.644532h-41.238281c-.195313 0-.714844 0-1.007813.644532-.292968.648437.050782 1.039062.179688 1.1875zm0 0" fill="#4c241d"/></svg>