<svg height="430pt" viewBox="-14 0 430 430.08" width="430pt" xmlns="http://www.w3.org/2000/svg"><path d="m307.238281 153.601562c0 84.828126-68.765625 153.597657-153.597656 153.597657s-153.6015625-68.769531-153.6015625-153.597657c0-84.832031 68.7695315-153.601562 153.6015625-153.601562s153.597656 68.769531 153.597656 153.601562zm0 0" fill="#d9be6f"/><path d="m329.796875 423.253906h-181.648437c-36.554688 0-66.1875-29.636718-66.1875-66.191406v-157.363281c0-76.359375 61.898437-138.257813 138.257812-138.257813h37.507812c76.359376 0 138.261719 61.898438 138.261719 138.257813v157.363281c0 36.554688-29.636719 66.191406-66.191406 66.191406zm0 0" fill="#bf7e68"/><path d="m329.796875 430.078125h-181.648437c-40.257813 0-73.015626-32.75-73.015626-73.011719v-157.367187c0-80 65.085938-145.085938 145.085938-145.085938h37.507812c80 0 145.085938 65.085938 145.085938 145.085938v157.367187c0 40.261719-32.753906 73.011719-73.015625 73.011719zm-109.578125-361.8125c-72.472656 0-131.433594 58.960937-131.433594 131.433594v157.367187c0 32.734375 26.632813 59.359375 59.363282 59.359375h181.648437c32.734375 0 59.363281-26.625 59.363281-59.359375v-157.367187c0-72.472657-58.960937-131.433594-131.433594-131.433594zm0 0" fill="#4c241d"/><path d="m299.222656 138.972656c-23.398437 0-43.605468 13.519532-53.566406 33.226563-3.59375 7.109375-9.777344 7.109375-13.367188 0-9.960937-19.707031-30.167968-33.226563-53.566406-33.226563-31.835937 0-57.84375 24.988282-60.035156 56.613282h-.214844c0 .726562.097656 1.429687.109375 2.152343-.027343.71875-.109375 1.425781-.109375 2.148438 0 4.285156.449219 8.464843 1.28125 12.5 8.113282 59.179687 58.214844 104.789062 118.976563 104.789062 59.148437 0 108.214843-43.214843 118.265625-100.097656 1.585937-5.457031 2.476562-11.214844 2.476562-17.1875 0-33.644531-26.976562-60.917969-60.25-60.917969zm0 0" fill="#edebdc"/><path d="m238.730469 324.007812c-63.035157 0-117.089844-47.585937-125.742188-110.691406-.867187-4.128906-1.34375-8.800781-1.34375-13.429687 0-.59375.035157-1.171875.078125-1.75l-.003906-.902344c-.039062-.542969-.074219-1.085937-.074219-1.644531 0-.789063.132813-1.546875.382813-2.246094 3.289062-34.460938 32.25-61.191406 66.695312-61.191406 25.269532 0 48.128906 14.164062 59.660156 36.972656.210938.410156.410157.746094.589844 1 .179688-.253906.382813-.589844.589844-1 11.53125-22.808594 34.390625-36.972656 59.660156-36.972656 36.988282 0 67.078125 30.386718 67.078125 67.738281 0 6.273437-.886719 12.574219-2.640625 18.738281-10.96875 61.078125-63.453125 105.378906-124.929687 105.378906zm-113.347657-127.074218c.011719.265625.023438.472656.027344.679687l-.109375 2.273438c0 3.707031.382813 7.445312 1.140625 11.128906 7.804688 56.824219 56.046875 99.339844 112.289063 99.339844 54.960937 0 101.875-39.726563 111.546875-94.460938.042968-.242187.101562-.480469.167968-.714843 1.460938-5.039063 2.203126-10.1875 2.203126-15.292969 0-29.828125-23.96875-54.085938-53.425782-54.085938-20.089844 0-38.28125 11.292969-47.472656 29.480469-2.914062 5.765625-7.574219 9.070312-12.773438 9.070312-5.203124 0-9.859374-3.308593-12.777343-9.070312-9.195313-18.1875-27.382813-29.480469-47.472657-29.480469-27.894531 0-51.269531 22.074219-53.222656 50.257813-.023437.296875-.0625.589844-.121094.875zm0 0" fill="#4c241d"/><path d="m299.222656 138.972656c-23.398437 0-43.605468 13.519532-53.566406 33.226563-3.59375 7.109375-9.777344 7.109375-13.367188 0-9.960937-19.707031-30.167968-33.226563-53.566406-33.226563-31.835937 0-57.84375 24.988282-60.035156 56.613282h-.214844c0 .726562.097656 1.429687.109375 2.152343-.027343.71875-.109375 1.425781-.109375 2.148438 0 4.285156.449219 8.464843 1.28125 12.5 8.113282 59.179687 58.214844 104.789062 118.976563 104.789062 59.148437 0 108.214843-43.214843 118.265625-100.097656 1.585937-5.457031 2.476562-11.214844 2.476562-17.1875 0-33.644531-26.976562-60.917969-60.25-60.917969zm0 0" fill="#edebdc"/><path d="m238.730469 324.007812c-63.035157 0-117.089844-47.585937-125.742188-110.691406-.867187-4.128906-1.34375-8.800781-1.34375-13.429687 0-.59375.035157-1.171875.078125-1.75l-.003906-.902344c-.039062-.542969-.074219-1.085937-.074219-1.644531 0-.789063.132813-1.546875.382813-2.246094 3.289062-34.460938 32.25-61.191406 66.695312-61.191406 25.269532 0 48.128906 14.164062 59.660156 36.972656.210938.410156.410157.746094.589844 1 .179688-.253906.382813-.589844.589844-1 11.53125-22.808594 34.390625-36.972656 59.660156-36.972656 36.988282 0 67.078125 30.386718 67.078125 67.738281 0 6.273437-.886719 12.574219-2.640625 18.738281-10.96875 61.078125-63.453125 105.378906-124.929687 105.378906zm-113.347657-127.074218c.011719.265625.023438.472656.027344.679687l-.109375 2.273438c0 3.707031.382813 7.445312 1.140625 11.128906 7.804688 56.824219 56.046875 99.339844 112.289063 99.339844 54.960937 0 101.875-39.726563 111.546875-94.460938.042968-.242187.101562-.480469.167968-.714843 1.460938-5.039063 2.203126-10.1875 2.203126-15.292969 0-29.828125-23.96875-54.085938-53.425782-54.085938-20.089844 0-38.28125 11.292969-47.472656 29.480469-2.914062 5.765625-7.574219 9.070312-12.773438 9.070312-5.203124 0-9.859374-3.308593-12.777343-9.070312-9.195313-18.1875-27.382813-29.480469-47.472657-29.480469-27.894531 0-51.269531 22.074219-53.222656 50.257813-.023437.296875-.0625.589844-.121094.875zm0 0" fill="#4c241d"/><path d="m309.097656 187.347656c-11.808594-5.570312-25.894531-2.136718-34.476562 7.777344-12.488282 14.417969-8.71875 36.855469 7.84375 46.171875 17.617187 9.90625 32.550781 21.996094 44.945312 36.152344 14.464844-16.042969 24.742188-35.980469 29.085938-58.121094-13.484375-12.667969-29.203125-23.394531-47.398438-31.980469zm0 0" fill="#6b4f5b"/><path d="m327.410156 284.28125c-.019531 0-.035156 0-.050781 0-1.949219-.015625-3.804687-.863281-5.085937-2.335938-11.925782-13.617187-26.441407-25.296874-43.15625-34.707031-9.632813-5.414062-16.253907-14.820312-18.167969-25.804687-1.929688-11.085938 1.171875-22.304688 8.511719-30.773438 10.703124-12.359375 28.199218-16.265625 42.550781-9.488281 18.457031 8.714844 35 19.875 49.164062 33.179687 1.714844 1.605469 2.476563 3.980469 2.027344 6.289063-4.484375 22.832031-15.105469 44.058594-30.71875 61.386719-1.296875 1.433594-3.140625 2.253906-5.074219 2.253906zm-30.234375-92.761719c-6.425781 0-12.859375 2.839844-17.394531 8.074219-4.644531 5.359375-6.601562 12.464844-5.378906 19.5 1.203125 6.925781 5.363281 12.84375 11.414062 16.246094 15.644532 8.808594 29.535156 19.480468 41.382813 31.789062 10.53125-13.339844 17.988281-28.855468 21.8125-45.40625-12.484375-11.195312-26.875-20.675781-42.828125-28.199218-2.859375-1.347657-5.933594-2.003907-9.007813-2.003907zm0 0" fill="#4c241d"/><path d="m318.351562 220.195312c0-7.621093-6.113281-13.800781-13.652343-13.800781-7.539063 0-13.648438 6.179688-13.648438 13.800781 0 7.621094 6.109375 13.800782 13.648438 13.800782 7.539062 0 13.652343-6.179688 13.652343-13.800782zm0 0" fill="#4c241d"/><path d="m121.089844 219.65625c4.40625 22.128906 14.691406 42.074219 29.203125 58.085938 12.441406-14.285157 27.453125-26.472657 45.1875-36.445313 16.5625-9.316406 20.332031-31.753906 7.847656-46.171875-8.585937-9.914062-22.667969-13.347656-34.476563-7.777344-18.355468 8.664063-34.199218 19.496094-47.761718 32.308594zm0 0" fill="#6b4f5b"/><path d="m150.292969 284.566406c-1.925781 0-3.761719-.8125-5.054688-2.238281-15.617187-17.226563-26.28125-38.433594-30.84375-61.335937-.457031-2.308594.300781-4.679688 2.007813-6.292969 14.238281-13.460938 30.902344-24.742188 49.535156-33.527344 14.347656-6.78125 31.847656-2.875 42.550781 9.488281 7.339844 8.464844 10.441407 19.683594 8.511719 30.769532-1.914062 10.988281-8.535156 20.394531-18.171875 25.816406-16.8125 9.453125-31.40625 21.226562-43.386719 34.980468-1.28125 1.464844-3.132812 2.316407-5.082031 2.339844-.019531 0-.042969 0-.066406 0zm-21.707031-62.53125c3.875 16.597656 11.363281 32.097656 21.898437 45.378906 11.910156-12.433593 25.890625-23.199218 41.648437-32.066406 6.050782-3.40625 10.207032-9.328125 11.414063-16.253906 1.222656-7.03125-.738281-14.136719-5.378906-19.5-6.707031-7.738281-17.578125-10.226562-26.40625-6.074219-16.109375 7.601563-30.613281 17.179688-43.175781 28.515625zm0 0" fill="#4c241d"/><path d="m186.894531 220.195312c0-7.621093-6.109375-13.800781-13.648437-13.800781-7.539063 0-13.648438 6.179688-13.648438 13.800781 0 7.621094 6.109375 13.800782 13.648438 13.800782 7.539062 0 13.648437-6.179688 13.648437-13.800782zm0 0" fill="#4c241d"/><path d="m253.578125 253.421875c0-6.117187-8.171875-11.074219-18.257813-11.074219-10.082031 0-18.257812 4.957032-18.257812 11.074219s8.175781 11.078125 18.257812 11.078125c10.085938 0 18.257813-4.960938 18.257813-11.078125zm0 0" fill="#6b4f5b"/><g fill="#4c241d"><path d="m235.324219 271.324219c-14.066407 0-25.085938-7.863281-25.085938-17.90625 0-10.039063 11.019531-17.898438 25.085938-17.898438 14.066406 0 25.082031 7.859375 25.082031 17.898438 0 10.042969-11.015625 17.90625-25.082031 17.90625zm0-22.152344c-7.625 0-11.433594 3.433594-11.433594 4.246094s3.808594 4.253906 11.433594 4.253906c7.617187 0 11.429687-3.441406 11.429687-4.253906s-3.8125-4.246094-11.429687-4.246094zm0 0"/><path d="m261.101562 298.0625c-2.058593 0-4.125-.300781-6.148437-.90625-5.515625-1.65625-10.050781-5.382812-12.769531-10.488281-1.769532-3.328125-.511719-7.460938 2.816406-9.234375 3.332031-1.746094 7.460938-.507813 9.234375 2.820312.996094 1.867188 2.640625 3.21875 4.640625 3.820313 1.960938.59375 4.042969.371093 5.859375-.605469 3.8125-2.082031 5.234375-6.929688 3.171875-10.808594-1.769531-3.324218-.507812-7.460937 2.820312-9.234375 3.339844-1.777343 7.460938-.503906 9.230469 2.820313 5.570313 10.460937 1.664063 23.566406-8.695312 29.207031-3.175781 1.734375-6.652344 2.609375-10.160157 2.609375zm0 0"/></g></svg>