<svg height="430pt" viewBox="0 -17 430.08 430" width="430pt" xmlns="http://www.w3.org/2000/svg"><path d="m307.199219 153.640625c0 84.832031-68.769531 153.597656-153.597657 153.597656-84.832031 0-153.601562-68.765625-153.601562-153.597656s68.769531-153.6015625 153.601562-153.6015625c84.828126 0 153.597657 68.7695315 153.597657 153.6015625zm0 0" fill="#d9be6f"/><path d="m109.226562 171.625c0-11.816406-9.582031-21.398438-21.398437-21.398438h-37.074219c-11.816406 0-21.398437 9.582032-21.398437 21.398438v12.578125c0 30.25 24.519531 54.769531 54.769531 54.769531h66.0625v-34.132812h-7.746094c-18.34375 0-33.214844-14.871094-33.214844-33.214844zm0 0" fill="#a9ba5a"/><path d="m150.1875 245.800781h-66.066406c-33.960938 0-61.59375-27.628906-61.59375-61.59375v-12.582031c0-15.5625 12.660156-28.226562 28.226562-28.226562h37.074219c15.566406 0 28.226563 12.664062 28.226563 28.226562 0 14.550781 11.839843 26.386719 26.386718 26.386719h7.746094c3.773438 0 6.824219 3.058593 6.824219 6.828125v34.132812c0 3.769532-3.050781 6.828125-6.824219 6.828125zm-99.433594-88.746093c-8.035156 0-14.574218 6.535156-14.574218 14.570312v12.582031c0 26.433594 21.507812 47.941407 47.941406 47.941407h59.238281v-20.480469h-.917969c-22.082031 0-40.042968-17.964844-40.042968-40.042969 0-8.035156-6.539063-14.570312-14.570313-14.570312zm0 0" fill="#4c241d"/><path d="m402.015625 232.148438c0 38.746093-59.257813 70.15625-132.363281 70.15625-73.101563 0-132.363282-31.410157-132.363282-70.15625zm0 0" fill="#efefd2"/><path d="m269.652344 309.128906c-78.050782 0-139.191406-33.816406-139.191406-76.980468 0-3.773438 3.050781-6.828126 6.824218-6.828126h264.734375c3.773438 0 6.824219 3.054688 6.824219 6.828126.003906 43.164062-61.136719 76.980468-139.191406 76.980468zm-124.777344-70.15625c7 31.261719 61.292969 56.503906 124.777344 56.503906 63.488281 0 117.78125-25.242187 124.78125-56.503906zm0 0" fill="#4c241d"/><path d="m333.441406 376.976562c-27.398437 27.398438-91.515625 7.703126-143.203125-43.988281-51.691406-51.691406-71.386719-115.804687-43.988281-143.203125zm0 0" fill="#a9ba5a"/><path d="m299.21875 396.25c-33.300781 0-76.3125-20.9375-113.8125-58.433594-55.1875-55.191406-74.507812-122.332031-43.988281-152.855468 2.5625-2.558594 7.09375-2.558594 9.65625 0l187.191406 187.191406c1.28125 1.277344 2 3.015625 2 4.824218 0 1.808594-.71875 3.546876-2 4.828126-9.785156 9.78125-23.339844 14.445312-39.046875 14.445312zm-152.433594-196.269531c-17.152344 27.050781 3.386719 83.292969 48.273438 128.179687 44.882812 44.882813 101.128906 65.449219 128.1875 48.273438zm0 0" fill="#4c241d"/><path d="m136.535156 232.148438c0-71.636719 59.597656-129.707032 133.117188-129.707032 73.519531 0 133.121094 58.070313 133.121094 129.707032zm0 0" fill="#bf7e68"/><g fill="#4c241d"><path d="m402.773438 238.972656h-266.238282c-3.773437 0-6.828125-3.054687-6.828125-6.824218 0-75.285157 62.78125-136.535157 139.945313-136.535157 77.167968 0 139.949218 61.25 139.949218 136.535157 0 3.769531-3.054687 6.824218-6.828124 6.824218zm-259.21875-13.652344h252.199218c-3.65625-64.59375-58.816406-116.054687-126.101562-116.054687-67.289063 0-122.445313 51.460937-126.097656 116.054687zm0 0"/><path d="m184.320312 238.972656c-3.773437 0-6.828124-3.054687-6.828124-6.824218v-95.574219c0-3.769531 3.054687-6.828125 6.828124-6.828125 3.773438 0 6.828126 3.058594 6.828126 6.828125v95.574219c0 3.769531-3.054688 6.824218-6.828126 6.824218zm0 0"/><path d="m238.933594 238.972656c-3.773438 0-6.828125-3.054687-6.828125-6.824218v-122.882813c0-3.769531 3.054687-6.824219 6.828125-6.824219 3.773437 0 6.828125 3.054688 6.828125 6.824219v122.882813c0 3.769531-3.054688 6.824218-6.828125 6.824218zm0 0"/><path d="m293.546875 238.972656c-3.773437 0-6.828125-3.054687-6.828125-6.824218v-122.882813c0-3.769531 3.054688-6.824219 6.828125-6.824219s6.828125 3.054688 6.828125 6.824219v122.882813c0 3.769531-3.054688 6.824218-6.828125 6.824218zm0 0"/><path d="m348.160156 238.972656c-3.773437 0-6.828125-3.054687-6.828125-6.824218v-102.402344c0-3.769532 3.054688-6.824219 6.828125-6.824219 3.773438 0 6.828125 3.054687 6.828125 6.824219v102.402344c0 3.769531-3.054687 6.824218-6.828125 6.824218zm0 0"/></g><path d="m382.292969 273.105469h-40.960938c0-22.621094 18.339844-40.957031 40.960938-40.957031h40.960937c0 22.621093-18.339844 40.957031-40.960937 40.957031zm0 0" fill="#a9ba5a"/><path d="m382.292969 279.933594h-40.960938c-3.773437 0-6.824219-3.058594-6.824219-6.828125 0-26.347657 21.4375-47.785157 47.785157-47.785157h40.960937c3.773438 0 6.824219 3.054688 6.824219 6.828126 0 26.347656-21.4375 47.785156-47.785156 47.785156zm-33.445313-13.652344h33.445313c16.488281 0 30.273437-11.75 33.449219-27.308594h-33.449219c-16.484375 0-30.273438 11.746094-33.445313 27.308594zm0 0" fill="#4c241d"/><path d="m70.554688 184.359375c0 5.035156-4.082032 9.117187-9.113282 9.117187-5.035156 0-9.117187-4.082031-9.117187-9.117187s4.082031-9.113281 9.117187-9.113281c5.03125 0 9.113282 4.078125 9.113282 9.113281zm0 0" fill="#4c241d"/></svg>