<svg height="431pt" viewBox="0 -4 431.80202 431" width="431pt" xmlns="http://www.w3.org/2000/svg"><path d="m307.199219 154c0 84.832031-68.769531 153.601562-153.597657 153.601562-84.832031 0-153.601562-68.769531-153.601562-153.601562 0-84.828125 68.769531-153.597656 153.601562-153.597656 84.828126 0 153.597657 68.769531 153.597657 153.597656zm0 0" fill="#d9be6f"/><path d="m378.722656 217.183594-59.609375-59.609375c-4.867187-4.867188-4.867187-12.761719 0-17.625 24.460938-24.460938 64.117188-24.460938 88.574219 0l6.21875 6.21875c14.761719 14.761719 14.761719 38.695312 0 53.457031l-17.558594 17.558594c-4.867187 4.867187-12.757812 4.867187-17.625 0zm0 0" fill="#bf7e68"/><path d="m387.535156 227.648438c-4.941406 0-9.878906-1.882813-13.636718-5.640626l-59.613282-59.613281c-3.644531-3.640625-5.648437-8.484375-5.648437-13.636719 0-5.152343 2.003906-9.992187 5.648437-13.636718 13.117188-13.121094 30.558594-20.347656 49.109375-20.347656 18.554688 0 35.996094 7.226562 49.113281 20.347656l6.222657 6.21875c8.425781 8.429687 13.070312 19.632812 13.070312 31.554687 0 11.917969-4.644531 23.125-13.070312 31.554688l-17.558594 17.558593c-3.757813 3.761719-8.699219 5.640626-13.636719 5.640626zm-24.136718-99.21875c-14.902344 0-28.917969 5.804687-39.457032 16.34375-1.0625 1.066406-1.652344 2.480468-1.652344 3.984374 0 1.507813.589844 2.925782 1.652344 3.988282l59.609375 59.609375c2.199219 2.191406 5.769531 2.195312 7.96875 0l17.558594-17.554688c5.851563-5.851562 9.074219-13.632812 9.074219-21.90625 0-8.273437-3.226563-16.046875-9.074219-21.898437l-6.222656-6.222656c-10.539063-10.539063-24.550781-16.34375-39.457031-16.34375zm0 0" fill="#4c241d"/><path d="m373.679688 189.929688-24.261719-24.265626c-1.984375-1.984374-1.984375-5.195312 0-7.175781 9.953125-9.957031 26.097656-9.957031 36.054687 0l2.53125 2.53125c6.007813 6.011719 6.007813 15.753907 0 21.761719l-7.148437 7.148438c-1.980469 1.980468-5.195313 1.980468-7.175781 0zm0 0" fill="#fc8c29"/><path d="m377.265625 198.234375c-3.042969 0-6.089844-1.160156-8.414063-3.480469l-24.265624-24.261718c-4.632813-4.640626-4.632813-12.191407-.003907-16.828126 12.609375-12.605468 33.113281-12.609374 45.714844-.003906l2.53125 2.535156c4.195313 4.191407 6.507813 9.769532 6.507813 15.707032 0 5.933594-2.3125 11.507812-6.507813 15.703125l-7.148437 7.148437c-2.316407 2.320313-5.363282 3.480469-8.414063 3.480469zm1.242187-13.132813h.070313zm-22.972656-22.964843 21.730469 21.722656 5.910156-5.90625c1.617188-1.617187 2.507813-3.765625 2.507813-6.050781 0-2.289063-.890625-4.4375-2.507813-6.050782l-2.53125-2.539062c-6.859375-6.859375-17.78125-7.261719-25.109375-1.175781zm0 0" fill="#4c241d"/><path d="m92.320312 217.183594 59.605469-59.609375c4.867188-4.867188 4.867188-12.761719 0-17.625-24.457031-24.460938-64.113281-24.460938-88.570312 0l-6.21875 6.21875c-14.761719 14.761719-14.761719 38.695312 0 53.457031l17.554687 17.558594c4.867188 4.867187 12.761719 4.867187 17.628906 0zm0 0" fill="#bf7e68"/><path d="m83.503906 227.648438c-4.9375 0-9.875-1.882813-13.636718-5.640626l-17.554688-17.558593c-8.429688-8.429688-13.074219-19.636719-13.074219-31.554688 0-11.921875 4.644531-23.128906 13.074219-31.554687l6.21875-6.21875c13.117188-13.121094 30.558594-20.347656 49.113281-20.347656 18.550781 0 35.992188 7.226562 49.109375 20.347656 3.644532 3.644531 5.652344 8.484375 5.652344 13.636718 0 5.152344-2.007812 9.996094-5.652344 13.636719l-59.609375 59.613281c-3.761719 3.761719-8.703125 5.640626-13.640625 5.640626zm24.140625-99.21875c-14.90625 0-28.921875 5.804687-39.460937 16.34375l-6.222656 6.222656c-5.847657 5.851562-9.070313 13.625-9.070313 21.898437 0 8.273438 3.222656 16.054688 9.070313 21.90625l17.558593 17.554688c2.203125 2.195312 5.773438 2.191406 7.96875 0l59.609375-59.609375c1.066406-1.0625 1.652344-2.480469 1.652344-3.988282 0-1.503906-.585938-2.917968-1.652344-3.984374-10.535156-10.539063-24.550781-16.34375-39.453125-16.34375zm0 0" fill="#4c241d"/><path d="m415.160156 304.1875c0 80.0625-95.167968 112.640625-176.226562 112.640625s-183.054688-32.578125-183.054688-112.640625 80.65625-174.078125 183.054688-174.078125c109.226562 0 176.226562 94.015625 176.226562 174.078125zm0 0" fill="#bf7e68"/><path d="m238.933594 423.65625c-45.722656 0-91.292969-9.859375-125.023438-27.042969-42.433594-21.617187-64.859375-53.574219-64.859375-92.425781 0-83.660156 82.945313-180.90625 189.882813-180.90625 51.824218 0 99.460937 21.042969 134.128906 59.257812 30.636719 33.765626 48.929688 79.242188 48.929688 121.648438 0 82.082031-94.890626 119.46875-183.058594 119.46875zm0-286.722656c-79.824219 0-176.230469 74.609375-176.230469 167.253906 0 77.632812 105.390625 105.8125 176.230469 105.8125 81.589844 0 169.402344-33.113281 169.402344-105.8125 0-80.773438-68.070313-167.253906-169.402344-167.253906zm0 0" fill="#4c241d"/><path d="m104.1875 189.929688 24.265625-24.265626c1.980469-1.984374 1.980469-5.195312 0-7.175781-9.957031-9.957031-26.101563-9.957031-36.054687 0l-2.535157 2.53125c-6.007812 6.011719-6.007812 15.753907 0 21.761719l7.148438 7.148438c1.980469 1.980468 5.195312 1.980468 7.175781 0zm0 0" fill="#fc8c29"/><path d="m100.597656 198.234375c-3.046875 0-6.09375-1.160156-8.414062-3.480469l-7.148438-7.148437c-4.195312-4.195313-6.507812-9.773438-6.507812-15.703125 0-5.9375 2.3125-11.515625 6.507812-15.710938l2.53125-2.53125c12.597656-12.601562 33.105469-12.609375 45.710938 0 4.632812 4.640625 4.632812 12.191406.003906 16.828125l-24.269531 24.265625c-2.316407 2.320313-5.363281 3.480469-8.414063 3.480469zm9.828125-40.378906c-4.78125 0-9.5625 1.820312-13.203125 5.457031l-2.53125 2.535156c-1.617187 1.617188-2.507812 3.765625-2.507812 6.054688 0 2.285156.890625 4.433594 2.507812 6.050781l5.910156 5.90625 21.730469-21.722656c-3.441406-2.855469-7.675781-4.28125-11.90625-4.28125zm0 0" fill="#4c241d"/><path d="m184.160156 274.875-25.964844 44.972656c-24.34375 42.164063 6.085938 94.871094 54.773438 94.871094h51.929688c48.6875 0 79.117187-52.707031 54.773437-94.871094l-25.964844-44.972656c-24.34375-42.164062-85.203125-42.164062-109.546875 0zm0 0" fill="#e7d1c4"/><g fill="#4c241d"><path d="m264.898438 421.542969h-51.929688c-25.332031 0-48.023438-13.097657-60.691406-35.035157-12.660156-21.9375-12.660156-48.136718 0-70.074218l25.96875-44.972656c12.667968-21.941407 35.351562-35.035157 60.6875-35.035157 25.332031 0 48.019531 13.09375 60.6875 35.035157l25.964844 44.972656c12.664062 21.9375 12.664062 48.132812 0 70.074218-12.664063 21.9375-35.355469 35.035157-60.6875 35.035157zm-25.964844-171.464844c-20.398438 0-38.664063 10.546875-48.859375 28.210937l-25.96875 44.972657c-10.199219 17.664062-10.199219 38.753906 0 56.421875 10.199219 17.664062 28.464843 28.207031 48.863281 28.207031h51.929688c20.398437 0 38.664062-10.546875 48.863281-28.207031 10.199219-17.667969 10.199219-38.757813 0-56.421875l-25.96875-44.972657c-10.195313-17.664062-28.464844-28.210937-48.859375-28.210937zm-54.773438 24.796875h.066406zm0 0"/><path d="m327.679688 239.335938c0 7.539062-6.113282 13.652343-13.652344 13.652343-7.542969 0-13.652344-6.113281-13.652344-13.652343 0-7.542969 6.109375-13.65625 13.652344-13.65625 7.539062 0 13.652344 6.113281 13.652344 13.65625zm0 0"/><path d="m184.320312 239.335938c0 7.539062-6.113281 13.652343-13.652343 13.652343-7.542969 0-13.65625-6.113281-13.65625-13.652343 0-7.542969 6.113281-13.65625 13.65625-13.65625 7.539062 0 13.652343 6.113281 13.652343 13.65625zm0 0"/><path d="m238.933594 375.867188c-3.769532 0-6.828125-3.054688-6.828125-6.828126v-34.132812c0-3.769531 3.058593-6.824219 6.828125-6.824219 3.769531 0 6.828125 3.054688 6.828125 6.824219v34.132812c0 3.773438-3.058594 6.828126-6.828125 6.828126zm0 0"/><path d="m240.945312 382.421875c-12.601562 0-23.9375-3.265625-30.328124-8.734375-2.863282-2.453125-3.195313-6.761719-.746094-9.625 2.445312-2.859375 6.757812-3.199219 9.625-.75 3.171875 2.714844 11.035156 5.453125 21.449218 5.453125 10.808594 0 19.253907-3.011719 22.011719-5.988281 2.5625-2.769532 6.886719-2.933594 9.644531-.363282 2.765626 2.558594 2.929688 6.878907.367188 9.644532-5.917969 6.394531-18.1875 10.363281-32.023438 10.363281zm0 0"/></g><path d="m224.484375 330.699219-10.160156-11.617188c-4.484375-5.128906-.84375-13.148437 5.96875-13.148437h41.394531c6.8125 0 10.453125 8.019531 5.96875 13.148437l-10.160156 11.617188c-8.738282 9.988281-24.273438 9.988281-33.011719 0zm0 0" fill="#6b4f5b"/><path d="m240.988281 345.019531c-8.292969 0-16.179687-3.585937-21.644531-9.828125l-10.15625-11.613281c-3.867188-4.417969-4.753906-10.476563-2.332031-15.820313 2.429687-5.339843 7.574219-8.652343 13.4375-8.652343h41.394531c5.863281 0 11.011719 3.3125 13.4375 8.652343 2.421875 5.34375 1.527344 11.40625-2.332031 15.820313l-10.15625 11.613281c-5.460938 6.242188-13.347657 9.828125-21.648438 9.828125zm-20.695312-32.261719c-.191407 0-.710938 0-1.003907.644532-.296874.652344.046876 1.039062.175782 1.1875l10.15625 11.613281h.003906c5.730469 6.5625 17 6.5625 22.730469 0l10.15625-11.613281c.128906-.148438.46875-.535156.179687-1.1875-.292968-.644532-.8125-.644532-1.003906-.644532zm0 0" fill="#4c241d"/></svg>