<svg height="432pt" viewBox="0 -18 432.5871 432" width="432pt" xmlns="http://www.w3.org/2000/svg"><path d="m307.199219 153.894531c0 84.828125-68.769531 153.597657-153.597657 153.597657-84.832031 0-153.601562-68.769532-153.601562-153.597657 0-84.832031 68.769531-153.601562 153.601562-153.601562 84.828126 0 153.597657 68.769531 153.597657 153.601562zm0 0" fill="#d9be6f"/><path d="m425.761719 169.320312c0-35.996093-29.179688-65.175781-65.171875-65.175781-35.996094 0-65.175782 29.179688-65.175782 65.175781 0 18.699219 7.921876 35.515626 20.535157 47.398438-2.632813 5.390625-4.242188 11.371094-4.242188 17.773438 0 22.496093 19.847657 32.378906 40.734375 40.734374 40.734375 16.292969 73.320313-81.441406 73.320313-105.90625zm0 0" fill="#e7d1c4"/><path d="m361.558594 283.859375c-3.917969 0-7.828125-.761719-11.652344-2.292969-16.839844-6.738281-45.027344-18.011718-45.027344-47.074218 0-5.488282 1-10.929688 2.980469-16.230469-12.460937-13.359375-19.273437-30.5625-19.273437-48.941407 0-39.707031 32.300781-72.003906 72-72.003906 39.699218 0 72 32.300782 72 72.003906 0 21.140626-20.398438 87.113282-51.183594 107.957032-6.464844 4.375-13.171875 6.582031-19.84375 6.582031zm-.972656-172.886719c-32.171876 0-58.347657 26.175782-58.347657 58.347656 0 16.1875 6.535157 31.257813 18.394531 42.429688 2.179688 2.050781 2.765626 5.28125 1.453126 7.964844-2.359376 4.828125-3.554688 9.796875-3.554688 14.777344 0 16.578124 13.359375 25.164062 36.441406 34.394531 6.128906 2.445312 12.261719 1.5 18.773438-2.914063 25.144531-17.027344 45.1875-78.035156 45.1875-96.652344 0-32.171874-26.175782-58.347656-58.347656-58.347656zm0 0" fill="#4c241d"/><path d="m394.269531 179.601562c0-18.601562-15.082031-33.679687-33.679687-33.679687-18.601563 0-33.683594 15.078125-33.683594 33.679687 0 9.664063 4.09375 18.351563 10.613281 24.496094-1.359375 2.785156-2.195312 5.875-2.195312 9.183594 0 11.625 10.257812 16.734375 21.050781 21.050781 21.050781 8.421875 37.894531-42.089843 37.894531-54.730469zm0 0" fill="#ffded5"/><path d="m361.117188 242.109375c-2.4375 0-4.878907-.476563-7.273438-1.4375-8.859375-3.542969-25.347656-10.144531-25.347656-27.390625 0-2.574219.375-5.121094 1.105468-7.621094-6.171874-7.289062-9.523437-16.382812-9.523437-26.0625 0-22.335937 18.171875-40.503906 40.503906-40.503906 22.335938 0 40.507813 18.167969 40.507813 40.503906 0 11.769532-10.828125 46.972656-27.902344 58.527344-3.902344 2.648438-7.988281 3.984375-12.070312 3.984375zm-.53125-89.363281c-14.808594 0-26.851563 12.046875-26.851563 26.851562 0 7.449219 3.007813 14.386719 8.464844 19.527344 2.179687 2.050781 2.769531 5.277344 1.457031 7.964844-.996094 2.042968-1.503906 4.121094-1.503906 6.1875 0 5.988281 4.234375 9.703125 16.769531 14.71875 1.425781.574218 3.480469.945312 6.617187-1.175782 11.957032-8.09375 21.902344-38.347656 21.902344-47.222656-.003906-14.804687-12.046875-26.851562-26.855468-26.851562zm0 0" fill="#4c241d"/><path d="m24.796875 169.320312c0-35.996093 29.179687-65.175781 65.171875-65.175781 35.996094 0 65.175781 29.179688 65.175781 65.175781 0 18.699219-7.921875 35.515626-20.535156 47.398438 2.632813 5.390625 4.242187 11.371094 4.242187 17.773438 0 22.496093-19.847656 32.378906-40.734374 40.734374-40.734376 16.292969-73.320313-81.441406-73.320313-105.90625zm0 0" fill="#e7d1c4"/><path d="m89 283.859375c-6.671875 0-13.382812-2.207031-19.839844-6.578125-30.789062-20.84375-51.1875-86.816406-51.1875-107.960938 0-39.703124 32.300782-72.003906 72-72.003906 39.703125 0 72.003906 32.300782 72.003906 72.003906 0 18.378907-6.816406 35.582032-19.273437 48.945313 1.976563 5.296875 2.976563 10.738281 2.976563 16.230469 0 29.0625-28.1875 40.335937-45.027344 47.070312-3.828125 1.53125-7.734375 2.292969-11.652344 2.292969zm.972656-172.886719c-32.175781 0-58.347656 26.175782-58.347656 58.347656 0 18.621094 20.039062 79.625 45.1875 96.652344 6.511719 4.414063 12.652344 5.363282 18.773438 2.914063 23.078124-9.230469 36.441406-17.816407 36.441406-34.390625 0-4.980469-1.195313-9.953125-3.554688-14.777344-1.3125-2.6875-.726562-5.917969 1.453125-7.96875 11.859375-11.167969 18.394531-26.238281 18.394531-42.429688 0-32.171874-26.175781-58.347656-58.347656-58.347656zm0 0" fill="#4c241d"/><path d="m56.289062 179.601562c0-18.601562 15.082032-33.679687 33.679688-33.679687 18.601562 0 33.683594 15.078125 33.683594 33.679687 0 9.664063-4.09375 18.351563-10.613282 24.496094 1.359376 2.785156 2.195313 5.875 2.195313 9.183594 0 11.625-10.257813 16.734375-21.050781 21.050781-21.054688 8.421875-37.894532-42.089843-37.894532-54.730469zm0 0" fill="#ffded5"/><path d="m89.441406 242.109375c-4.082031 0-8.167968-1.335937-12.074218-3.980469-17.074219-11.558594-27.902344-46.761718-27.902344-58.527344 0-22.335937 18.171875-40.507812 40.507812-40.507812 22.332032 0 40.503906 18.171875 40.503906 40.507812 0 9.675782-3.351562 18.773438-9.523437 26.058594.730469 2.503906 1.105469 5.046875 1.105469 7.621094 0 17.246094-16.488282 23.847656-25.339844 27.390625-2.398438.957031-4.839844 1.4375-7.277344 1.4375zm.53125-89.363281c-14.808594 0-26.851562 12.046875-26.851562 26.851562 0 8.875 9.945312 39.128906 21.898437 47.222656 3.132813 2.121094 5.179688 1.75 6.625 1.175782 12.527344-5.015625 16.761719-8.730469 16.761719-14.71875 0-2.066406-.507812-4.144532-1.5-6.1875-1.316406-2.6875-.726562-5.914063 1.453125-7.964844 5.460937-5.144531 8.46875-12.078125 8.46875-19.527344 0-14.804687-12.050781-26.851562-26.855469-26.851562zm0 0" fill="#4c241d"/><path d="m344.292969 197.832031c0-56.238281-54.710938-101.832031-122.199219-101.832031-67.492188 0-122.203125 45.59375-122.203125 101.832031 0 40.414063 28.320313 75.226563 69.265625 91.679688l16.621094 24.9375c7.742187 11.609375 11.875 25.253906 11.875 39.210937 0 1.675782-1.363282 3.035156-3.039063 3.035156h-21.402343c-9 0-16.292969 7.296876-16.292969 16.296876 0 8.996093 7.292969 16.292968 16.292969 16.292968h7.511718c43.464844 0 81.351563-29.582031 91.890625-71.746094l7.519531-30.078124c38.203126-17.21875 64.160157-50.894532 64.160157-89.628907zm0 0" fill="#b5a19c"/><g fill="#4c241d"><path d="m180.726562 396.109375h-7.511718c-12.75 0-23.121094-10.367187-23.121094-23.117187 0-12.753907 10.371094-23.121094 23.121094-23.121094h17.5c-.664063-11.296875-4.300782-22.164063-10.617188-31.636719l-15.464844-23.203125c-43.554687-18.285156-71.566406-56.226562-71.566406-97.199219 0-59.914062 57.878906-108.664062 129.027344-108.664062s129.027344 48.75 129.027344 108.664062c0 39.199219-24.875 75.117188-65.15625 94.445313l-6.730469 26.914062c-11.320313 45.289063-51.828125 76.917969-98.507813 76.917969zm-7.511718-32.585937c-5.222656 0-9.46875 4.246093-9.46875 9.46875 0 5.21875 4.246094 9.464843 9.46875 9.464843h7.511718c40.40625 0 75.464844-27.375 85.265626-66.578125l7.519531-30.074218c.507812-2.027344 1.914062-3.710938 3.8125-4.566407 37.09375-16.71875 60.140625-48.675781 60.140625-83.40625 0-52.386719-51.753906-95.007812-115.375-95.007812s-115.375 42.621093-115.375 95.007812c0 36.535157 24.902344 69.234375 64.980468 85.34375 1.28125.515625 2.367188 1.402344 3.132813 2.546875l16.628906 24.9375c8.519531 12.777344 13.019531 27.644532 13.019531 42.996094 0 5.441406-4.429687 9.867188-9.867187 9.867188zm0 0"/><path d="m232.753906 291.292969h-13.179687c-3.773438 0-6.828125-3.054688-6.828125-6.824219 0-3.773438 3.054687-6.828125 6.828125-6.828125h13.179687c3.773438 0 6.828125 3.054687 6.828125 6.828125 0 3.769531-3.058593 6.824219-6.828125 6.824219zm0 0"/><path d="m238.386719 318.601562h-24.441407c-3.773437 0-6.824218-3.058593-6.824218-6.828124 0-3.769532 3.050781-6.828126 6.824218-6.828126h24.441407c3.773437 0 6.824219 3.058594 6.824219 6.828126 0 3.769531-3.050782 6.828124-6.824219 6.828124zm0 0"/><path d="m290.601562 239.226562c0 5.914063-4.792968 10.707032-10.707031 10.707032-5.914062 0-10.707031-4.792969-10.707031-10.707032 0-5.914062 4.792969-10.707031 10.707031-10.707031 5.914063 0 10.707031 4.792969 10.707031 10.707031zm0 0"/><path d="m181.375 239.226562c0 5.914063-4.792969 10.707032-10.707031 10.707032-5.914063 0-10.707031-4.792969-10.707031-10.707032 0-5.914062 4.792968-10.707031 10.707031-10.707031 5.914062 0 10.707031 4.792969 10.707031 10.707031zm0 0"/></g></svg>