<svg height="409pt" viewBox="0 -31 409.56261 409" width="409pt" xmlns="http://www.w3.org/2000/svg"><path d="m307.199219 153.882812c0 84.828126-68.769531 153.597657-153.597657 153.597657-84.832031 0-153.601562-68.769531-153.601562-153.597657 0-84.832031 68.769531-153.601562 153.601562-153.601562 84.828126 0 153.597657 68.769531 153.597657 153.601562zm0 0" fill="#d9be6f"/><path d="m12.207031 339.554688s-9.621093-182.800782 134.695313-221.285157c0 0 0 115.453125-134.695313 221.285157zm0 0" fill="#edebdc"/><path d="m12.207031 346.382812c-.957031 0-1.921875-.199218-2.824219-.609374-2.320312-1.050782-3.859374-3.3125-3.992187-5.855469-.101563-1.886719-8.203125-188.792969 139.753906-228.246094 2.054688-.53125 4.238281-.105469 5.917969 1.183594 1.679688 1.292969 2.667969 3.292969 2.667969 5.414062 0 4.851563-1.5625 119.996094-137.308594 226.65625-1.222656.960938-2.710937 1.457031-4.214844 1.457031zm127.152344-218.753906c-105.90625 34.757813-118.980469 156.140625-120.304687 197.585938 60.558593-50.691406 90.132812-102.457032 104.386718-137.808594 10.792969-26.777344 14.589844-48.21875 15.917969-59.777344zm0 0" fill="#4c241d"/><path d="m402.640625 339.554688s9.621094-182.800782-134.695313-221.285157c0 0 0 115.453125 134.695313 221.285157zm0 0" fill="#edebdc"/><path d="m402.640625 346.382812c-1.503906 0-2.992187-.496093-4.21875-1.457031-135.746094-106.660156-137.304687-221.804687-137.304687-226.65625 0-2.121093.984374-4.121093 2.664062-5.414062 1.683594-1.289063 3.878906-1.722657 5.921875-1.183594 147.953125 39.453125 139.851563 226.363281 139.753906 228.246094-.132812 2.542969-1.671875 4.800781-3.992187 5.855469-.90625.410156-1.867188.609374-2.824219.609374zm-127.152344-218.75c1.328125 11.554688 5.121094 32.996094 15.917969 59.773438 14.25 35.347656 43.828125 87.113281 104.371094 137.796875-1.363282-41.472656-14.527344-162.855469-120.289063-197.570313zm0 0" fill="#4c241d"/><path d="m284.390625 179.625v-28.5c0-30.527344-24.359375-55.273438-54.414063-55.273438h-45.105468c-30.054688 0-54.417969 24.746094-54.417969 55.273438v28.554688c0 2.761718-1.386719 5.261718-3.570313 6.90625-17.082031 12.890624-27.492187 34.378906-24.898437 58.199218 3.199219 29.335938 26.871094 53.050782 55.785156 55.964844 19.316407 1.945312 37.011719-5.089844 49.652344-17.429688 12.640625 12.339844 30.335937 19.375 49.652344 17.429688 28.917969-2.914062 52.585937-26.632812 55.785156-55.964844 2.59375-23.804687-7.800781-45.273437-24.859375-58.167968-2.203125-1.664063-3.609375-4.195313-3.609375-6.992188zm0 0" fill="#edebdc"/><g fill="#4c241d"><path d="m250.832031 307.890625c-15.800781 0-31.089843-5.433594-43.410156-15.4375-14.113281 11.464844-32.113281 16.921875-50.335937 15.089844-32.300782-3.253907-58.328126-29.335938-61.886719-62.019531-2.746094-25.210938 7.5625-49.28125 27.570312-64.386719.257813-.191407.855469-.722657.855469-1.457031v-28.554688c0-34.242188 27.476562-62.097656 61.246094-62.097656h45.105468c33.769532 0 61.242188 27.855468 61.242188 62.097656v28.5c0 .78125.628906 1.339844.898438 1.542969 19.984374 15.105469 30.273437 39.164062 27.53125 64.355469-3.5625 32.683593-29.589844 58.761718-61.890626 62.019531-2.3125.234375-4.628906.347656-6.925781.347656zm-43.410156-31.398437c1.722656 0 3.445313.648437 4.769531 1.945312 11.785156 11.503906 27.863282 17.140625 44.199219 15.519531 25.921875-2.609375 46.816406-23.601562 49.679687-49.914062 2.222657-20.371094-6.074218-39.796875-22.183593-51.976563-4.019531-3.035156-6.320313-7.570312-6.320313-12.4375v-28.503906c0-26.710938-21.351562-48.445312-47.589844-48.445312h-45.109374c-26.238282 0-47.589844 21.730468-47.589844 48.445312v28.554688c0 4.839843-2.289063 9.34375-6.289063 12.359374-16.132812 12.175782-24.441406 31.617188-22.21875 52.003907 2.867188 26.3125 23.761719 47.304687 49.679688 49.914062 16.335937 1.636719 32.414062-4.015625 44.199219-15.519531 1.332031-1.296875 3.054687-1.945312 4.773437-1.945312zm0 0"/><path d="m265.3125 189.691406c0-7.09375-4.167969-12.839844-9.3125-12.839844s-9.3125 5.746094-9.3125 12.839844c0 7.089844 4.167969 12.839844 9.3125 12.839844s9.3125-5.75 9.3125-12.839844zm0 0"/><path d="m162.910156 189.691406c0-7.09375-4.167968-12.839844-9.308594-12.839844-5.144531 0-9.3125 5.746094-9.3125 12.839844 0 7.089844 4.167969 12.839844 9.3125 12.839844 5.140626 0 9.308594-5.75 9.308594-12.839844zm0 0"/><path d="m204.695312 247.292969c-.050781 0-.101562 0-.148437 0-7.171875-.046875-14.03125-3.484375-20.390625-10.21875-2.589844-2.738281-2.464844-7.058594.277344-9.648438 2.738281-2.589843 7.058594-2.46875 9.648437.277344 3.699219 3.917969 7.253907 5.914063 10.554688 5.9375h.050781c3.367188 0 7.027344-2.019531 10.890625-6.007813 2.621094-2.703124 6.949219-2.773437 9.652344-.144531 2.707031 2.621094 2.773437 6.941407.148437 9.652344-6.53125 6.738281-13.488281 10.152344-20.683594 10.152344zm0 0"/><path d="m203.644531 266.519531c-3.769531 0-6.824219-3.054687-6.824219-6.824219v-18.675781c0-3.769531 3.054688-6.828125 6.824219-6.828125 3.773438 0 6.828125 3.058594 6.828125 6.828125v18.675781c0 3.769532-3.054687 6.824219-6.828125 6.824219zm0 0"/></g></svg>